<svg width="400" height="396" viewBox="0 0 400 396" fill="none" xmlns="http://www.w3.org/2000/svg">
<g filter="url(#filter0_d)">
<g clip-path="url(#clip0)">
<path d="M305.422 60.8194C269.372 32.9048 223.481 20.165 177.844 25.4027C132.208 30.6403 90.5635 53.4263 62.0734 88.748C33.5832 124.07 20.5808 169.034 25.9264 213.749C31.2721 258.463 54.5279 299.266 90.5779 327.181C126.628 355.095 172.519 367.835 218.156 362.597C263.792 357.36 305.436 334.574 333.927 299.252C362.417 263.93 375.419 218.966 370.074 174.251C364.728 129.537 341.472 88.7339 305.422 60.8194ZM105.924 308.155L290.076 79.8452C305.376 91.6925 318.145 106.377 327.653 123.059C337.161 139.741 343.223 158.095 345.492 177.073C347.76 196.05 346.192 215.28 340.876 233.664C335.56 252.047 326.6 269.225 314.509 284.216C302.417 299.207 287.43 311.718 270.404 321.034C253.378 330.35 234.645 336.289 215.276 338.512C195.907 340.735 176.281 339.198 157.519 333.989C138.756 328.781 121.224 320.002 105.924 308.155Z" fill="white"/>
<path d="M305.422 60.8194C269.372 32.9048 223.481 20.165 177.844 25.4027C132.208 30.6403 90.5635 53.4263 62.0734 88.748C33.5832 124.07 20.5808 169.034 25.9264 213.749C31.2721 258.463 54.5279 299.266 90.5779 327.181C126.628 355.095 172.519 367.835 218.156 362.597C263.792 357.36 305.436 334.574 333.927 299.252C362.417 263.93 375.419 218.966 370.074 174.251C364.728 129.537 341.472 88.7339 305.422 60.8194ZM105.924 308.155L290.076 79.8452C305.376 91.6925 318.145 106.377 327.653 123.059C337.161 139.741 343.223 158.095 345.492 177.073C347.76 196.05 346.192 215.28 340.876 233.664C335.56 252.047 326.6 269.225 314.509 284.216C302.417 299.207 287.43 311.718 270.404 321.034C253.378 330.35 234.645 336.289 215.276 338.512C195.907 340.735 176.281 339.198 157.519 333.989C138.756 328.781 121.224 320.002 105.924 308.155Z" fill="url(#paint0_linear)"/>
<path d="M181.96 118.633L181.96 118.633C186.261 125.866 184.355 133.12 181.219 138.731C178.42 143.737 174.697 147.338 173.664 148.337C173.565 148.433 173.49 148.505 173.444 148.551C172.92 148.953 172.258 149.148 171.592 149.094C170.914 149.038 170.286 148.731 169.836 148.237C169.387 147.744 169.149 147.102 169.17 146.445C169.19 145.789 169.466 145.163 169.944 144.697C171.935 142.814 173.708 140.722 175.23 138.457L175.247 138.432L175.261 138.405L175.262 138.404C175.348 138.234 175.91 137.134 176.032 135.791C176.158 134.421 175.824 132.746 174.05 131.599L174.041 131.593L174.031 131.588C170.065 129.261 165.675 127.713 161.107 127.031C156.538 126.075 152.224 125.427 149.071 125.056L148.513 124.99V125.552V179.78V179.792L148.513 179.803C148.94 188.905 141.296 198.535 129.817 202.152L129.813 202.153C126.841 203.114 123.731 203.604 120.601 203.607L120.595 203.607C116.723 203.652 112.903 202.74 109.487 200.954L109.485 200.953C107.51 199.934 105.771 198.527 104.376 196.822C102.982 195.117 101.962 193.15 101.378 191.043C98.7709 181.113 106.821 169.617 119.621 165.568L119.621 165.568L119.634 165.564C122.902 164.428 126.371 163.952 129.832 164.165C133.29 164.378 136.667 165.273 139.761 166.797C140.628 167.277 141.454 167.826 142.228 168.44L143.038 169.082V168.048V106.1L145.958 106.282C146.032 106.288 146.121 106.296 146.222 106.305C148.24 106.482 155.442 107.116 162.972 108.861C166.934 109.778 170.967 110.999 174.377 112.613C177.797 114.233 180.526 116.219 181.96 118.633ZM109.255 201.397C112.745 203.221 116.647 204.153 120.601 204.107C123.783 204.104 126.945 203.606 129.967 202.629C141.596 198.965 149.453 189.172 149.013 179.78L109.255 201.397Z" fill="white"/>
<path d="M181.96 118.633L181.96 118.633C186.261 125.866 184.355 133.12 181.219 138.731C178.42 143.737 174.697 147.338 173.664 148.337C173.565 148.433 173.49 148.505 173.444 148.551C172.92 148.953 172.258 149.148 171.592 149.094C170.914 149.038 170.286 148.731 169.836 148.237C169.387 147.744 169.149 147.102 169.17 146.445C169.19 145.789 169.466 145.163 169.944 144.697C171.935 142.814 173.708 140.722 175.23 138.457L175.247 138.432L175.261 138.405L175.262 138.404C175.348 138.234 175.91 137.134 176.032 135.791C176.158 134.421 175.824 132.746 174.05 131.599L174.041 131.593L174.031 131.588C170.065 129.261 165.675 127.713 161.107 127.031C156.538 126.075 152.224 125.427 149.071 125.056L148.513 124.99V125.552V179.78V179.792L148.513 179.803C148.94 188.905 141.296 198.535 129.817 202.152L129.813 202.153C126.841 203.114 123.731 203.604 120.601 203.607L120.595 203.607C116.723 203.652 112.903 202.74 109.487 200.954L109.485 200.953C107.51 199.934 105.771 198.527 104.376 196.822C102.982 195.117 101.962 193.15 101.378 191.043C98.7709 181.113 106.821 169.617 119.621 165.568L119.621 165.568L119.634 165.564C122.902 164.428 126.371 163.952 129.832 164.165C133.29 164.378 136.667 165.273 139.761 166.797C140.628 167.277 141.454 167.826 142.228 168.44L143.038 169.082V168.048V106.1L145.958 106.282C146.032 106.288 146.121 106.296 146.222 106.305C148.24 106.482 155.442 107.116 162.972 108.861C166.934 109.778 170.967 110.999 174.377 112.613C177.797 114.233 180.526 116.219 181.96 118.633ZM109.255 201.397C112.745 203.221 116.647 204.153 120.601 204.107C123.783 204.104 126.945 203.606 129.967 202.629C141.596 198.965 149.453 189.172 149.013 179.78L109.255 201.397Z" fill="url(#paint1_linear)"/>
<path d="M181.96 118.633L181.96 118.633C186.261 125.866 184.355 133.12 181.219 138.731C178.42 143.737 174.697 147.338 173.664 148.337C173.565 148.433 173.49 148.505 173.444 148.551C172.92 148.953 172.258 149.148 171.592 149.094C170.914 149.038 170.286 148.731 169.836 148.237C169.387 147.744 169.149 147.102 169.17 146.445C169.19 145.789 169.466 145.163 169.944 144.697C171.935 142.814 173.708 140.722 175.23 138.457L175.247 138.432L175.261 138.405L175.262 138.404C175.348 138.234 175.91 137.134 176.032 135.791C176.158 134.421 175.824 132.746 174.05 131.599L174.041 131.593L174.031 131.588C170.065 129.261 165.675 127.713 161.107 127.031C156.538 126.075 152.224 125.427 149.071 125.056L148.513 124.99V125.552V179.78V179.792L148.513 179.803C148.94 188.905 141.296 198.535 129.817 202.152L129.813 202.153C126.841 203.114 123.731 203.604 120.601 203.607L120.595 203.607C116.723 203.652 112.903 202.74 109.487 200.954L109.485 200.953C107.51 199.934 105.771 198.527 104.376 196.822C102.982 195.117 101.962 193.15 101.378 191.043C98.7709 181.113 106.821 169.617 119.621 165.568L119.621 165.568L119.634 165.564C122.902 164.428 126.371 163.952 129.832 164.165C133.29 164.378 136.667 165.273 139.761 166.797C140.628 167.277 141.454 167.826 142.228 168.44L143.038 169.082V168.048V106.1L145.958 106.282C146.032 106.288 146.121 106.296 146.222 106.305C148.24 106.482 155.442 107.116 162.972 108.861C166.934 109.778 170.967 110.999 174.377 112.613C177.797 114.233 180.526 116.219 181.96 118.633ZM109.255 201.397C112.745 203.221 116.647 204.153 120.601 204.107C123.783 204.104 126.945 203.606 129.967 202.629C141.596 198.965 149.453 189.172 149.013 179.78L109.255 201.397Z" stroke="#626262"/>
<path d="M248.055 221.455C245.646 219.046 242.488 217.842 238.582 217.842C233.048 217.842 228.165 219.388 223.934 222.48C219.441 225.703 217.195 229.609 217.195 234.199C217.195 237.78 218.872 241.165 222.225 244.355C220.988 246.048 219.051 247.48 216.414 248.652C215.698 248.978 214.965 249.141 214.217 249.141C213.468 249.141 212.605 248.913 211.629 248.457C210.685 248.001 209.839 247.35 209.09 246.504C207.397 244.583 206.551 242.288 206.551 239.619C206.551 236.95 207.023 234.476 207.967 232.197C208.911 229.919 210.197 227.803 211.824 225.85C213.452 223.864 215.34 222.074 217.488 220.479C219.669 218.883 221.98 217.5 224.422 216.328C229.533 213.952 234.513 212.764 239.363 212.764C244.246 212.764 248.315 213.643 251.57 215.4C259.122 219.469 262.898 228.649 262.898 242.939C262.898 247.269 262.557 252.087 261.873 257.393C267.407 251.11 278.133 241.426 294.051 228.34C296.232 226.582 298.266 224.889 300.154 223.262C301.912 218.802 303.361 215.872 304.5 214.473C306.355 212.161 307.951 211.006 309.285 211.006C310.62 211.006 311.531 211.348 312.02 212.031C312.508 212.682 312.752 213.317 312.752 213.936C312.752 214.521 312.573 215.14 312.215 215.791C311.889 216.442 311.466 217.142 310.945 217.891C309.871 219.388 308.699 220.837 307.43 222.236C304.207 239.717 302.596 257.344 302.596 275.117C302.596 281.465 299.975 285.794 294.734 288.105C292.358 289.147 289.786 289.668 287.02 289.668C282.853 289.668 279.272 288.675 276.277 286.689C275.105 285.908 274.194 285.013 273.543 284.004C277.091 281.042 282.283 271.048 289.119 254.023C291.854 247.188 294.376 240.221 296.688 233.125L287.068 242.744C274.861 254.951 266.023 264.782 260.555 272.236C260.066 276.077 258.699 280.13 256.453 284.395C255.053 286.966 253.898 288.675 252.986 289.521C252.107 290.368 251.44 290.791 250.984 290.791C247.924 290.791 244.686 289.88 241.268 288.057C237.85 286.234 236.141 284.525 236.141 282.93C236.141 280.781 238.159 277.38 242.195 272.725C243.302 271.423 244.425 270.202 245.564 269.062C250.577 258.092 253.084 247.676 253.084 237.812C253.084 236.641 252.986 234.899 252.791 232.588C252.628 230.277 251.945 227.852 250.74 225.312C246.183 240.286 239.656 254.154 231.16 266.914C225.171 275.866 219.035 282.197 212.752 285.908C209.497 287.829 206.242 288.789 202.986 288.789C199.731 288.789 197.078 288.285 195.027 287.275C190.763 285.16 188.631 281.595 188.631 276.582C188.631 273.327 189.461 270.348 191.121 267.646C192.033 266.182 193.058 265.107 194.197 264.424C198.592 267.549 203.019 269.111 207.479 269.111C214.054 269.111 220.581 265.514 227.059 258.32C232.755 251.973 238.387 242.744 243.953 230.635C245.451 227.38 246.818 224.32 248.055 221.455Z" fill="#35A600"/>
<path d="M248.055 221.455L248.973 221.852L249.242 221.228L248.762 220.748L248.055 221.455ZM223.934 222.48L224.517 223.293L224.524 223.288L223.934 222.48ZM222.225 244.355L223.032 244.945L223.55 244.236L222.914 243.631L222.225 244.355ZM216.414 248.652L216.008 247.738L216 247.742L216.414 248.652ZM211.629 248.457L211.194 249.358L211.206 249.363L211.629 248.457ZM209.09 246.504L208.34 247.165L208.341 247.166L209.09 246.504ZM211.824 225.85L212.592 226.49L212.598 226.484L211.824 225.85ZM217.488 220.479L216.898 219.671L216.892 219.676L217.488 220.479ZM224.422 216.328L224 215.421L223.989 215.427L224.422 216.328ZM251.57 215.4L251.095 216.28L251.096 216.281L251.57 215.4ZM261.873 257.393L260.881 257.265L260.464 260.505L262.623 258.054L261.873 257.393ZM294.051 228.34L293.423 227.561L293.416 227.567L294.051 228.34ZM300.154 223.262L300.807 224.019L300.994 223.858L301.085 223.628L300.154 223.262ZM304.5 214.473L305.276 215.104L305.28 215.099L304.5 214.473ZM312.02 212.031L311.206 212.612L311.213 212.622L311.22 212.631L312.02 212.031ZM312.215 215.791L311.339 215.309L311.329 215.326L311.32 215.344L312.215 215.791ZM310.945 217.891L311.758 218.474L311.762 218.468L311.766 218.462L310.945 217.891ZM307.43 222.236L306.689 221.565L306.498 221.775L306.446 222.055L307.43 222.236ZM294.734 288.105L295.136 289.021L295.138 289.02L294.734 288.105ZM276.277 286.689L275.723 287.522L275.725 287.523L276.277 286.689ZM273.543 284.004L272.902 283.236L272.223 283.803L272.703 284.546L273.543 284.004ZM289.119 254.023L290.047 254.396L290.048 254.395L289.119 254.023ZM296.688 233.125L297.638 233.435L295.98 232.418L296.688 233.125ZM260.555 272.236L259.748 271.645L259.595 271.853L259.563 272.11L260.555 272.236ZM256.453 284.395L257.332 284.873L257.338 284.861L256.453 284.395ZM252.986 289.521L252.306 288.789L252.299 288.795L252.293 288.801L252.986 289.521ZM242.195 272.725L242.951 273.38L242.957 273.372L242.195 272.725ZM245.564 269.062L246.272 269.77L246.399 269.642L246.474 269.478L245.564 269.062ZM252.791 232.588L251.793 232.658L251.795 232.672L252.791 232.588ZM250.74 225.312L251.644 224.884L250.536 222.549L249.784 225.021L250.74 225.312ZM231.16 266.914L231.991 267.47L231.993 267.468L231.16 266.914ZM212.752 285.908L213.26 286.769L213.261 286.769L212.752 285.908ZM195.027 287.275L194.583 288.171L194.586 288.173L195.027 287.275ZM191.121 267.646L190.272 267.118L190.269 267.123L191.121 267.646ZM194.197 264.424L194.777 263.609L194.244 263.23L193.683 263.566L194.197 264.424ZM227.059 258.32L227.802 258.989L227.803 258.988L227.059 258.32ZM243.953 230.635L243.045 230.217L243.045 230.217L243.953 230.635ZM248.762 220.748C246.138 218.124 242.711 216.842 238.582 216.842V218.842C242.265 218.842 245.154 219.969 247.348 222.162L248.762 220.748ZM238.582 216.842C232.849 216.842 227.757 218.448 223.344 221.673L224.524 223.288C228.574 220.328 233.248 218.842 238.582 218.842V216.842ZM223.351 221.668C218.657 225.035 216.195 229.219 216.195 234.199H218.195C218.195 230 220.226 226.371 224.517 223.293L223.351 221.668ZM216.195 234.199C216.195 238.128 218.045 241.759 221.535 245.08L222.914 243.631C219.698 240.572 218.195 237.432 218.195 234.199H216.195ZM221.417 243.765C220.315 245.274 218.542 246.612 216.008 247.739L216.82 249.566C219.559 248.349 221.66 246.823 223.032 244.945L221.417 243.765ZM216 247.742C215.407 248.011 214.816 248.141 214.217 248.141V250.141C215.115 250.141 215.988 249.944 216.828 249.563L216 247.742ZM214.217 248.141C213.664 248.141 212.95 247.97 212.052 247.551L211.206 249.363C212.261 249.856 213.272 250.141 214.217 250.141V248.141ZM212.064 247.556C211.248 247.163 210.507 246.596 209.839 245.841L208.341 247.166C209.171 248.104 210.122 248.84 211.194 249.358L212.064 247.556ZM209.84 245.843C208.316 244.113 207.551 242.056 207.551 239.619H205.551C205.551 242.521 206.479 245.054 208.34 247.165L209.84 245.843ZM207.551 239.619C207.551 237.07 208.001 234.728 208.891 232.58L207.043 231.815C206.045 234.224 205.551 236.829 205.551 239.619H207.551ZM208.891 232.58C209.795 230.397 211.027 228.368 212.592 226.49L211.056 225.209C209.366 227.238 208.027 229.44 207.043 231.815L208.891 232.58ZM212.598 226.484C214.171 224.564 215.999 222.83 218.084 221.281L216.892 219.676C214.681 221.317 212.733 223.164 211.051 225.216L212.598 226.484ZM218.079 221.286C220.21 219.727 222.468 218.375 224.855 217.23L223.989 215.427C221.493 216.625 219.129 218.04 216.898 219.671L218.079 221.286ZM224.843 217.235C229.843 214.91 234.68 213.764 239.363 213.764V211.764C234.346 211.764 229.222 212.994 224 215.421L224.843 217.235ZM239.363 213.764C244.131 213.764 248.025 214.622 251.095 216.28L252.045 214.52C248.605 212.663 244.361 211.764 239.363 211.764V213.764ZM251.096 216.281C258.148 220.08 261.898 228.759 261.898 242.939H263.898C263.898 228.539 260.097 218.859 252.045 214.52L251.096 216.281ZM261.898 242.939C261.898 247.218 261.561 251.992 260.881 257.265L262.865 257.52C263.553 252.181 263.898 247.32 263.898 242.939H261.898ZM262.623 258.054C268.098 251.838 278.767 242.199 294.686 229.112L293.416 227.567C277.499 240.652 266.716 250.382 261.123 256.732L262.623 258.054ZM294.678 229.118C296.867 227.355 298.91 225.655 300.807 224.019L299.501 222.504C297.623 224.124 295.597 225.81 293.423 227.561L294.678 229.118ZM301.085 223.628C302.847 219.157 304.247 216.367 305.276 215.104L303.724 213.841C302.474 215.378 300.977 218.448 299.224 222.895L301.085 223.628ZM305.28 215.099C306.177 213.981 306.976 213.189 307.675 212.682C308.379 212.172 308.907 212.006 309.285 212.006V210.006C308.328 210.006 307.392 210.417 306.501 211.063C305.605 211.712 304.679 212.653 303.72 213.847L305.28 215.099ZM309.285 212.006C310.491 212.006 310.995 212.317 311.206 212.612L312.833 211.45C312.067 210.378 310.749 210.006 309.285 210.006V212.006ZM311.22 212.631C311.619 213.164 311.752 213.593 311.752 213.936H313.752C313.752 213.041 313.397 212.201 312.82 211.431L311.22 212.631ZM311.752 213.936C311.752 214.314 311.637 214.767 311.339 215.309L313.091 216.273C313.509 215.513 313.752 214.729 313.752 213.936H311.752ZM311.32 215.344C311.021 215.943 310.624 216.601 310.124 217.32L311.766 218.462C312.308 217.683 312.758 216.941 313.109 216.238L311.32 215.344ZM310.133 217.308C309.081 218.773 307.934 220.192 306.689 221.565L308.17 222.908C309.465 221.481 310.661 220.003 311.758 218.474L310.133 217.308ZM306.446 222.055C303.213 239.595 301.596 257.283 301.596 275.117H303.596C303.596 257.405 305.201 239.838 308.413 222.418L306.446 222.055ZM301.596 275.117C301.596 278.154 300.969 280.634 299.775 282.607C298.585 284.574 296.789 286.106 294.331 287.19L295.138 289.02C297.92 287.793 300.056 286.006 301.486 283.643C302.912 281.287 303.596 278.428 303.596 275.117H301.596ZM294.333 287.19C292.091 288.172 289.658 288.668 287.02 288.668V290.668C289.915 290.668 292.625 290.122 295.136 289.021L294.333 287.19ZM287.02 288.668C283.017 288.668 279.636 287.717 276.83 285.856L275.725 287.523C278.908 289.634 282.688 290.668 287.02 290.668V288.668ZM276.832 285.857C275.755 285.139 274.948 284.338 274.383 283.462L272.703 284.546C273.44 285.689 274.456 286.677 275.723 287.522L276.832 285.857ZM274.184 284.772C276.129 283.148 278.392 279.741 280.986 274.748C283.603 269.71 286.624 262.922 290.047 254.396L288.191 253.651C284.779 262.149 281.786 268.87 279.211 273.826C276.612 278.827 274.505 281.898 272.902 283.236L274.184 284.772ZM290.048 254.395C292.79 247.538 295.32 240.552 297.638 233.435L295.737 232.815C293.432 239.891 290.917 246.837 288.191 253.652L290.048 254.395ZM295.98 232.418L286.361 242.037L287.775 243.451L297.395 233.832L295.98 232.418ZM286.361 242.037C274.143 254.255 265.263 264.128 259.748 271.645L261.361 272.828C266.784 265.436 275.579 255.647 287.775 243.451L286.361 242.037ZM259.563 272.11C259.093 275.807 257.772 279.745 255.568 283.929L257.338 284.861C259.627 280.515 261.04 276.347 261.547 272.362L259.563 272.11ZM255.575 283.916C254.176 286.487 253.086 288.064 252.306 288.789L253.667 290.254C254.71 289.286 255.931 287.445 257.331 284.873L255.575 283.916ZM252.293 288.801C251.879 289.2 251.546 289.467 251.291 289.629C251.014 289.805 250.929 289.791 250.984 289.791V291.791C251.495 291.791 251.972 291.566 252.362 291.318C252.774 291.057 253.215 290.689 253.68 290.242L252.293 288.801ZM250.984 289.791C248.127 289.791 245.049 288.94 241.738 287.174L240.797 288.939C244.322 290.819 247.722 291.791 250.984 291.791V289.791ZM241.738 287.174C240.071 286.285 238.885 285.456 238.129 284.701C237.367 283.939 237.141 283.352 237.141 282.93H235.141C235.141 284.102 235.768 285.168 236.715 286.115C237.669 287.068 239.047 288.005 240.797 288.939L241.738 287.174ZM237.141 282.93C237.141 282.13 237.531 280.934 238.514 279.277C239.481 277.648 240.953 275.684 242.951 273.38L241.44 272.069C239.401 274.42 237.846 276.485 236.794 278.257C235.759 280.002 235.141 281.581 235.141 282.93H237.141ZM242.957 273.372C244.048 272.089 245.152 270.889 246.272 269.77L244.857 268.355C243.698 269.515 242.557 270.756 241.433 272.077L242.957 273.372ZM246.474 269.478C251.534 258.406 254.084 247.847 254.084 237.812H252.084C252.084 247.504 249.621 257.779 244.655 268.647L246.474 269.478ZM254.084 237.812C254.084 236.597 253.983 234.821 253.787 232.504L251.795 232.672C251.989 234.977 252.084 236.684 252.084 237.812H254.084ZM253.789 232.518C253.615 230.059 252.89 227.512 251.644 224.884L249.837 225.741C250.999 228.191 251.641 230.495 251.793 232.658L253.789 232.518ZM249.784 225.021C245.254 239.904 238.769 253.682 230.328 266.36L231.993 267.468C240.544 254.625 247.112 240.669 251.697 225.604L249.784 225.021ZM230.329 266.358C224.386 275.24 218.35 281.44 212.243 285.047L213.261 286.769C219.719 282.955 225.955 276.492 231.991 267.47L230.329 266.358ZM212.244 285.047C209.117 286.892 206.036 287.789 202.986 287.789V289.789C206.447 289.789 209.876 288.766 213.26 286.769L212.244 285.047ZM202.986 287.789C199.824 287.789 197.337 287.297 195.469 286.378L194.586 288.173C196.82 289.272 199.639 289.789 202.986 289.789V287.789ZM195.472 286.38C193.486 285.394 192.042 284.097 191.088 282.502C190.132 280.904 189.631 278.945 189.631 276.582H187.631C187.631 279.232 188.195 281.562 189.372 283.528C190.55 285.498 192.305 287.041 194.583 288.171L195.472 286.38ZM189.631 276.582C189.631 273.506 190.412 270.71 191.973 268.17L190.269 267.123C188.509 269.987 187.631 273.147 187.631 276.582H189.631ZM191.97 268.175C192.822 266.806 193.743 265.863 194.712 265.281L193.683 263.566C192.373 264.352 191.243 265.557 190.272 267.118L191.97 268.175ZM193.618 265.239C198.145 268.458 202.771 270.111 207.479 270.111V268.111C203.267 268.111 199.038 266.639 194.777 263.609L193.618 265.239ZM207.479 270.111C214.449 270.111 221.225 266.293 227.802 258.989L226.315 257.651C219.937 264.735 213.659 268.111 207.479 268.111V270.111ZM227.803 258.988C233.593 252.536 239.274 243.208 244.862 231.052L243.045 230.217C237.499 242.28 231.917 251.409 226.314 257.652L227.803 258.988ZM244.862 231.053C246.362 227.791 247.732 224.724 248.973 221.852L247.137 221.059C245.903 223.915 244.539 226.968 243.045 230.217L244.862 231.053Z" fill="#626262"/>
</g>
</g>
<defs>
<filter id="filter0_d" x="-4" y="0" width="404" height="396" filterUnits="userSpaceOnUse" color-interpolation-filters="sRGB">
<feFlood flood-opacity="0" result="BackgroundImageFix"/>
<feColorMatrix in="SourceAlpha" type="matrix" values="0 0 0 0 0 0 0 0 0 0 0 0 0 0 0 0 0 0 127 0"/>
<feOffset dy="4"/>
<feGaussianBlur stdDeviation="2"/>
<feColorMatrix type="matrix" values="0 0 0 0 0 0 0 0 0 0 0 0 0 0 0 0 0 0 0.25 0"/>
<feBlend mode="normal" in2="BackgroundImageFix" result="effect1_dropShadow"/>
<feBlend mode="normal" in="SourceGraphic" in2="effect1_dropShadow" result="shape"/>
</filter>
<linearGradient id="paint0_linear" x1="305.422" y1="60.8194" x2="95.9498" y2="331.34" gradientUnits="userSpaceOnUse">
<stop stop-color="#5BFF0E"/>
<stop offset="1" stop-color="#1E5E00"/>
</linearGradient>
<linearGradient id="paint1_linear" x1="142.675" y1="105.567" x2="142.675" y2="204.109" gradientUnits="userSpaceOnUse">
<stop stop-color="#5BFF0E"/>
<stop offset="1" stop-color="white" stop-opacity="0"/>
</linearGradient>
<clipPath id="clip0">
<rect width="396" height="388" fill="white"/>
</clipPath>
</defs>
</svg>
