<svg width="100" height="100" viewBox="0 0 100 100" fill="none" xmlns="http://www.w3.org/2000/svg">
<g clip-path="url(#clip0)">
<g opacity="0.1">
<path opacity="0.1" d="M73.5232 98.525C74.5905 98.525 75.4558 96.5749 75.4558 94.1693C75.4558 91.7637 74.5905 89.8136 73.5232 89.8136C72.4558 89.8136 71.5906 91.7637 71.5906 94.1693C71.5906 96.5749 72.4558 98.525 73.5232 98.525Z" fill="#E0E0E0"/>
<path opacity="0.1" d="M75.0525 75.5352C75.3233 74.726 75.4637 73.807 75.4593 72.873C75.4593 70.4624 74.5941 68.5173 73.5267 68.5173C72.4593 68.5173 71.5949 70.4669 71.5949 72.873C71.5895 73.8064 71.7287 74.7254 71.9983 75.5352C71.7338 76.3484 71.5949 77.2647 71.5949 78.1967C71.5949 79.1287 71.7338 80.0451 71.9983 80.8582C71.7338 81.6716 71.5949 82.5882 71.5949 83.5204C71.5949 84.4526 71.7338 85.3692 71.9983 86.1826C71.7287 86.9925 71.5895 87.9115 71.5949 88.8449C71.5949 91.2555 72.4602 93.2005 73.5267 93.2005C74.5932 93.2005 75.4593 91.251 75.4593 88.8449C75.4648 87.9115 75.3256 86.9925 75.056 86.1826C75.3205 85.3692 75.4593 84.4526 75.4593 83.5204C75.4593 82.5882 75.3205 81.6716 75.056 80.8582C75.3205 80.0451 75.4593 79.1287 75.4593 78.1967C75.4593 77.2647 75.3205 76.3484 75.056 75.5352H75.0525Z" fill="#E0E0E0"/>
<path opacity="0.1" d="M73.5232 71.9058C74.5905 71.9058 75.4558 69.9556 75.4558 67.5501C75.4558 65.1445 74.5905 63.1944 73.5232 63.1944C72.4558 63.1944 71.5906 65.1445 71.5906 67.5501C71.5906 69.9556 72.4558 71.9058 73.5232 71.9058Z" fill="#E0E0E0"/>
<path opacity="0.1" d="M73.5232 66.5813C74.5905 66.5813 75.4558 64.6312 75.4558 62.2256C75.4558 59.82 74.5905 57.8699 73.5232 57.8699C72.4558 57.8699 71.5906 59.82 71.5906 62.2256C71.5906 64.6312 72.4558 66.5813 73.5232 66.5813Z" fill="#E0E0E0"/>
<path opacity="0.1" d="M80.7568 25.7921C81.0205 25.2131 81.2608 24.6034 81.476 23.9676L76.4016 22.5317L81.8933 22.6026C82.4196 20.6287 82.7066 18.4907 82.7366 16.3193C82.7667 14.1479 82.5393 11.9888 82.0683 9.97393L74.6999 16.5519L81.4961 7.95504C80.8592 6.06224 80.0029 4.41545 78.9804 3.11719C77.958 1.81892 76.7913 0.896971 75.5531 0.408718C74.3148 -0.0795355 73.0314 -0.123637 71.7828 0.279159C70.5342 0.681956 69.3471 1.52303 68.2954 2.75002C67.2437 3.97701 66.3499 5.56366 65.6697 7.4112C64.9895 9.25874 64.5373 11.3276 64.3415 13.4891C64.1456 15.6505 64.2102 17.8583 64.5312 19.9749C64.8522 22.0915 65.4227 24.0716 66.2073 25.7921C65.7961 26.6929 65.4424 27.6673 65.1522 28.6984L71.7428 34.5954L64.7157 30.5275C64.2212 33.0384 64.0982 35.7221 64.3579 38.3355C64.6177 40.9489 65.2518 43.4095 66.203 45.4944C65.1291 47.8454 64.4611 50.6693 64.2753 53.6433C64.0895 56.6173 64.3934 59.6213 65.1523 62.3119C65.9112 65.0025 67.0944 67.271 68.5666 68.8582C70.0389 70.4453 71.7408 71.287 73.4777 71.287C75.2146 71.287 76.9165 70.4453 78.3888 68.8582C79.861 67.271 81.0442 65.0025 81.8031 62.3119C82.562 59.6213 82.8659 56.6173 82.6801 53.6433C82.4943 50.6693 81.8263 47.8454 80.7524 45.4944C82.0356 42.6851 82.7333 39.2145 82.7333 35.6402C82.7333 32.0659 82.0356 28.5954 80.7524 25.7861L80.7568 25.7921Z" fill="#35A600"/>
<path opacity="0.1" d="M64.2266 35.647C64.2234 39.222 64.9213 42.694 66.2073 45.5004C65.1335 47.8515 64.4655 50.6754 64.2797 53.6494C64.0939 56.6234 64.3978 59.6274 65.1567 62.3179C65.9155 65.0085 67.0987 67.2771 68.571 68.8642C70.0432 70.4514 71.7451 71.293 73.482 71.293C75.219 71.293 76.9208 70.4514 78.3931 68.8642C79.8653 67.2771 81.0485 65.0085 81.8074 62.3179C82.5663 59.6274 82.8702 56.6234 82.6844 53.6494C82.4986 50.6754 81.8306 47.8515 80.7567 45.5004C81.9973 42.7885 64.2266 33.8572 64.2266 35.647Z" fill="black"/>
</g>
<g opacity="0.1">
<path opacity="0.1" d="M19.3185 93.8665C19.9679 93.8665 20.4943 92.6793 20.4943 91.2148C20.4943 89.7503 19.9679 88.5631 19.3185 88.5631C18.6691 88.5631 18.1426 89.7503 18.1426 91.2148C18.1426 92.6793 18.6691 93.8665 19.3185 93.8665Z" fill="#E0E0E0"/>
<path opacity="0.1" d="M20.2537 79.8713C20.4179 79.3782 20.5027 78.8186 20.4996 78.2502C20.4996 76.7858 19.9746 75.5985 19.3228 75.5985C18.671 75.5985 18.147 76.7858 18.147 78.2502C18.1435 78.8185 18.2281 79.378 18.3919 79.8713C18.2313 80.3666 18.147 80.9245 18.147 81.4917C18.147 82.059 18.2313 82.6168 18.3919 83.1121C18.2313 83.6074 18.147 84.1652 18.147 84.7325C18.147 85.2997 18.2313 85.8576 18.3919 86.3529C18.228 86.8455 18.1434 87.4047 18.147 87.9725C18.147 89.4384 18.6719 90.6257 19.3228 90.6257C19.9737 90.6257 20.4996 89.4384 20.4996 87.9725C20.5029 87.4045 20.418 86.8454 20.2537 86.3529C20.4148 85.8579 20.4994 85.2999 20.4994 84.7325C20.4994 84.165 20.4148 83.6071 20.2537 83.1121C20.4148 82.6171 20.4994 82.0592 20.4994 81.4917C20.4994 80.9243 20.4148 80.3663 20.2537 79.8713Z" fill="#E0E0E0"/>
<path opacity="0.1" d="M19.3185 77.6611C19.9679 77.6611 20.4943 76.4739 20.4943 75.0094C20.4943 73.5449 19.9679 72.3577 19.3185 72.3577C18.6691 72.3577 18.1426 73.5449 18.1426 75.0094C18.1426 76.4739 18.6691 77.6611 19.3185 77.6611Z" fill="#E0E0E0"/>
<path opacity="0.1" d="M19.3185 74.4203C19.9679 74.4203 20.4943 73.2331 20.4943 71.7686C20.4943 70.3042 19.9679 69.117 19.3185 69.117C18.6691 69.117 18.1426 70.3042 18.1426 71.7686C18.1426 73.2331 18.6691 74.4203 19.3185 74.4203Z" fill="#E0E0E0"/>
<path opacity="0.1" d="M14.9169 49.5879C14.7563 49.2357 14.6101 48.8647 14.4794 48.4775L17.5704 47.6037L14.2275 47.6474C13.9074 46.4464 13.7328 45.1456 13.7143 43.8245C13.6958 42.5035 13.8338 41.1898 14.1198 39.9635L18.6019 43.9727L14.4663 38.7296C14.8542 37.5781 15.3755 36.5764 15.9979 35.7867C16.6202 34.9971 17.3303 34.4365 18.0839 34.1397C18.8374 33.8429 19.6184 33.8164 20.3782 34.0617C21.138 34.307 21.8603 34.8189 22.5003 35.5656C23.1403 36.3123 23.6842 37.2778 24.0982 38.4021C24.5122 39.5263 24.7874 40.7852 24.9067 42.1005C25.026 43.4157 24.9869 44.7592 24.7918 46.0473C24.5967 47.3355 24.2497 48.5406 23.7725 49.5879C24.0229 50.1356 24.2382 50.7281 24.4147 51.3552L20.4024 54.947L24.6807 52.4747C24.9811 54.0038 25.0554 55.6378 24.8969 57.2288C24.7383 58.8199 24.3519 60.3177 23.7725 61.5868C24.4262 63.018 24.8328 64.7371 24.9458 66.5475C25.0589 68.3579 24.8738 70.1865 24.4119 71.8243C23.9499 73.4622 23.2296 74.8431 22.3334 75.8092C21.4372 76.7754 20.4012 77.2877 19.3438 77.2877C18.2865 77.2877 17.2505 76.7754 16.3543 75.8092C15.458 74.8431 14.7378 73.4622 14.2758 71.8243C13.8138 70.1865 13.6288 68.3579 13.7418 66.5475C13.8549 64.7371 14.2615 63.018 14.9151 61.5868C14.1341 59.8763 13.7094 57.7634 13.7094 55.5874C13.7094 53.4113 14.1341 51.2984 14.9151 49.5879H14.9169Z" fill="#35A600"/>
<path opacity="0.1" d="M24.979 55.5874C24.9809 57.7639 24.5561 59.8778 23.7734 61.5868C24.4271 63.018 24.8337 64.7371 24.9467 66.5475C25.0598 68.3578 24.8748 70.1865 24.4128 71.8243C23.9508 73.4622 23.2305 74.8431 22.3343 75.8092C21.4381 76.7754 20.4021 77.2877 19.3447 77.2877C18.2874 77.2877 17.2514 76.7754 16.3552 75.8092C15.4589 74.8431 14.7387 73.4622 14.2767 71.8243C13.8147 70.1865 13.6297 68.3578 13.7427 66.5475C13.8558 64.7371 14.2624 63.018 14.916 61.5868C14.161 59.943 24.979 54.4981 24.979 55.5874Z" fill="black"/>
</g>
<g opacity="0.1">
<path opacity="0.1" d="M45.8277 96.1746C46.6969 96.1746 47.4016 94.5861 47.4016 92.6265C47.4016 90.6669 46.6969 89.0784 45.8277 89.0784C44.9584 89.0784 44.2537 90.6669 44.2537 92.6265C44.2537 94.5861 44.9584 96.1746 45.8277 96.1746Z" fill="#E0E0E0"/>
<path opacity="0.1" d="M47.0735 77.4456C47.2928 76.7855 47.4061 76.0366 47.4016 75.2761C47.4016 73.3174 46.7016 71.7279 45.8267 71.7279C44.9519 71.7279 44.2519 73.3174 44.2519 75.2761C44.2473 76.0368 44.3609 76.7859 44.5809 77.4456C44.3652 78.1081 44.252 78.8549 44.252 79.6144C44.252 80.3739 44.3652 81.1207 44.5809 81.7832C44.3652 82.4455 44.252 83.192 44.252 83.9513C44.252 84.7105 44.3652 85.4571 44.5809 86.1193C44.3609 86.7791 44.2473 87.5281 44.2519 88.2889C44.2519 90.2475 44.9571 91.837 45.8267 91.837C46.6964 91.837 47.4016 90.2475 47.4016 88.2889C47.4061 87.5284 47.2928 86.7795 47.0735 86.1193C47.2886 85.4568 47.4016 84.7104 47.4016 83.9513C47.4016 83.1922 47.2886 82.4458 47.0735 81.7832C47.2886 81.1204 47.4016 80.3738 47.4016 79.6144C47.4016 78.8551 47.2886 78.1084 47.0735 77.4456Z" fill="#E0E0E0"/>
<path opacity="0.1" d="M45.8277 74.4881C46.6969 74.4881 47.4016 72.8995 47.4016 70.94C47.4016 68.9804 46.6969 67.3918 45.8277 67.3918C44.9584 67.3918 44.2537 68.9804 44.2537 70.94C44.2537 72.8995 44.9584 74.4881 45.8277 74.4881Z" fill="#E0E0E0"/>
<path opacity="0.1" d="M45.8277 70.1505C46.6969 70.1505 47.4016 68.562 47.4016 66.6024C47.4016 64.6428 46.6969 63.0542 45.8277 63.0542C44.9584 63.0542 44.2537 64.6428 44.2537 66.6024C44.2537 68.562 44.9584 70.1505 45.8277 70.1505Z" fill="#E0E0E0"/>
<path opacity="0.1" d="M39.9388 36.9216C39.7236 36.4504 39.5278 35.954 39.3526 35.4361L43.4882 34.2669L39.0157 34.3242C38.5866 32.7163 38.3525 30.9745 38.3276 29.2054C38.3028 27.4363 38.4878 25.6771 38.8714 24.0354L44.8731 29.396L39.3377 22.3901C39.8549 20.8424 40.5518 19.4951 41.385 18.4322C42.2182 17.3693 43.1697 16.6138 44.1801 16.2128C45.1906 15.8118 46.2381 15.7739 47.2574 16.1016C48.2767 16.4293 49.2458 17.1155 50.1041 18.1173C50.9625 19.1191 51.6916 20.415 52.246 21.924C52.8004 23.4329 53.1681 25.1226 53.3261 26.8874C53.4842 28.6521 53.4292 30.454 53.1646 32.1805C52.9 33.907 52.4314 35.521 51.7883 36.9216C52.1232 37.6557 52.4112 38.4498 52.6474 39.2901L47.2791 44.0932L53.0035 40.7786C53.4056 42.8248 53.5051 45.0113 53.2929 47.1403C53.0807 49.2694 52.5636 51.2737 51.7883 52.9718C52.663 54.8871 53.2071 57.1875 53.3583 59.6102C53.5096 62.0328 53.262 64.4799 52.6438 66.6717C52.0256 68.8634 51.0617 70.7113 49.8624 72.0042C48.6631 73.2971 47.2767 73.9827 45.8618 73.9827C44.4468 73.9827 43.0605 73.2971 41.8611 72.0042C40.6618 70.7113 39.698 68.8634 39.0797 66.6717C38.4615 64.4799 38.2139 62.0328 38.3652 59.6102C38.5165 57.1875 39.0606 54.8871 39.9353 52.9718C38.8902 50.6828 38.322 47.8555 38.322 44.9437C38.322 42.0319 38.8902 39.2046 39.9353 36.9156L39.9388 36.9216Z" fill="#219653"/>
<path opacity="0.1" d="M53.4015 44.9505C53.4042 47.8628 52.8357 50.6914 51.7882 52.9779C52.6629 54.8931 53.207 57.1936 53.3583 59.6162C53.5096 62.0389 53.262 64.486 52.6438 66.6777C52.0256 68.8694 51.0617 70.7174 49.8624 72.0102C48.663 73.3031 47.2767 73.9887 45.8618 73.9887C44.4468 73.9887 43.0605 73.3031 41.8611 72.0102C40.6618 70.7174 39.6979 68.8694 39.0797 66.6777C38.4615 64.486 38.2139 62.0389 38.3652 59.6162C38.5165 57.1936 39.0606 54.8931 39.9353 52.9779C38.9248 50.7691 53.4015 43.4921 53.4015 44.9505Z" fill="black"/>
</g>
<path d="M100 95.8552C100 96.8903 95.6063 97.8365 88.3421 98.5672C87.021 98.6983 85.6054 98.8233 84.1041 98.9408C82.8069 99.0413 81.4474 99.1362 80.0254 99.2256C78.6477 99.31 77.2173 99.3883 75.734 99.4606C71.0499 99.6911 65.8714 99.8569 60.3701 99.9397C59.035 99.9608 57.6821 99.9769 56.3115 99.988C54.8836 99.999 53.4395 100.004 51.979 100.003C25.4576 100.003 3.95888 98.1484 3.95888 95.8598C3.95888 93.5712 25.4576 91.7165 51.979 91.7165C63.3972 91.7165 73.8828 92.0615 82.1242 92.6341L83.0254 92.6973H83.0306C93.4121 93.4552 100 94.5957 100 95.8552Z" fill="#E0E0E0"/>
<path opacity="0.15" d="M100 95.8552C100 96.8903 95.6063 97.8365 88.3421 98.5672C87.021 98.6983 85.6054 98.8233 84.1041 98.9408C82.8069 99.0413 81.4474 99.1362 80.0254 99.2256C78.6477 99.31 77.2173 99.3883 75.734 99.4606C71.0499 99.6911 65.8714 99.8569 60.3701 99.9397C59.035 99.9608 57.6821 99.9769 56.3115 99.988C54.8836 99.999 53.4395 100.004 51.979 100.003C25.4576 100.003 3.95888 98.1484 3.95888 95.8598C3.95888 93.5712 25.4576 91.7165 51.979 91.7165C63.3972 91.7165 73.8828 92.0615 82.1242 92.6341L83.0254 92.6973H83.0306C93.4121 93.4552 100 94.5957 100 95.8552Z" fill="black"/>
<path d="M96.0411 95.126C96.0411 95.9909 91.6474 96.7833 84.3832 97.386C83.063 97.496 81.6465 97.5999 80.1461 97.6979C78.8484 97.7822 77.4888 97.8616 76.0674 97.9359C74.6897 98.0062 73.2593 98.072 71.776 98.1333C67.091 98.3261 61.9125 98.4648 56.4112 98.5341C55.0773 98.5511 53.7244 98.5642 52.3526 98.5732C50.9248 98.5823 49.4809 98.5868 48.021 98.5868C21.4996 98.5868 0 97.0365 0 95.1215C0 93.2066 21.4996 91.6562 48.021 91.6562C59.4383 91.6562 69.9239 91.944 78.1654 92.4231L79.0665 92.4759H79.0726C89.4576 93.1192 96.0411 94.0669 96.0411 95.126Z" fill="#E0E0E0"/>
<path d="M12.4025 63.6479L11.1969 57.2914L40.0683 56.7475L41.2511 63.0407L12.4025 63.6479Z" fill="#E0E0E0"/>
<path opacity="0.15" d="M12.4025 63.6479L11.1969 57.2914L40.0683 56.7475L41.2511 63.0407L12.4025 63.6479Z" fill="black"/>
<path d="M10.4777 63.6479L9.27211 57.2914L38.1435 56.7475L39.3264 63.0407L10.4777 63.6479Z" fill="#E0E0E0"/>
<path d="M59.7647 53.8803C56.7795 53.8803 54.4269 51.8399 52.7069 47.7589C50.9869 43.6779 50.1269 38.7341 50.1269 32.9275C50.1269 27.0818 50.9586 22.1481 52.622 18.1263C54.2855 14.1046 56.632 12.0958 59.6614 12.0998C62.874 12.0998 65.2945 14.2186 66.923 18.4563C68.5515 22.694 69.366 27.5986 69.3666 33.1701C69.3666 38.7015 68.5238 43.5368 66.8381 47.676C65.1525 51.8152 62.7947 53.8834 59.7647 53.8803ZM59.8521 49.2896C61.816 49.2896 63.2838 47.8156 64.2555 44.8676C65.2272 41.9197 65.713 38.2033 65.713 33.7185C65.713 28.7265 65.2158 24.639 64.2213 21.456C63.2269 18.273 61.7017 16.681 59.6457 16.68C55.7378 16.68 53.7839 22.0255 53.7839 32.7166C53.7839 43.7663 55.8061 49.2906 59.8504 49.2896H59.8521ZM60.8355 93.2518H56.5179L84.7839 12.9179H89.0201L60.8355 93.2518ZM85.8416 94.0759C82.8116 94.0759 80.4494 92.0168 78.755 87.8987C77.0607 83.7805 76.21 78.8363 76.203 73.0658C76.203 67.2593 77.0289 62.3451 78.6807 58.3234C80.3325 54.3017 82.6847 52.2928 85.7375 52.2969C88.9274 52.2969 91.331 54.4157 92.9484 58.6534C94.5658 62.891 95.3747 67.7951 95.3753 73.3657C95.3753 78.8609 94.5381 83.6871 92.8635 87.8445C91.189 92.0018 88.8478 94.0789 85.8399 94.0759H85.8416ZM85.8924 89.3677C87.8469 89.3677 89.3068 87.9188 90.2721 85.021C91.2374 82.1232 91.72 78.4219 91.72 73.9171C91.72 69.0959 91.2316 65.0526 90.2546 61.7872C89.2776 58.5218 87.7556 56.8866 85.6885 56.8816C81.7579 56.8816 79.7927 62.2271 79.7927 72.9182C79.7915 83.8855 81.8241 89.3687 85.8906 89.3677H85.8924Z" fill="#E0E0E0"/>
<path d="M59.7647 53.8803C56.7795 53.8803 54.4269 51.8399 52.7069 47.7589C50.9869 43.6779 50.1269 38.7341 50.1269 32.9275C50.1269 27.0818 50.9586 22.1481 52.622 18.1263C54.2855 14.1046 56.632 12.0958 59.6614 12.0998C62.874 12.0998 65.2945 14.2186 66.923 18.4563C68.5515 22.694 69.366 27.5986 69.3666 33.1701C69.3666 38.7015 68.5238 43.5368 66.8381 47.676C65.1525 51.8152 62.7947 53.8834 59.7647 53.8803ZM59.8521 49.2896C61.816 49.2896 63.2838 47.8156 64.2555 44.8676C65.2272 41.9197 65.713 38.2033 65.713 33.7185C65.713 28.7265 65.2158 24.639 64.2213 21.456C63.2269 18.273 61.7017 16.681 59.6457 16.68C55.7378 16.68 53.7839 22.0255 53.7839 32.7166C53.7839 43.7663 55.8061 49.2906 59.8504 49.2896H59.8521ZM60.8355 93.2518H56.5179L84.7839 12.9179H89.0201L60.8355 93.2518ZM85.8416 94.0759C82.8116 94.0759 80.4494 92.0168 78.755 87.8987C77.0607 83.7805 76.21 78.8363 76.203 73.0658C76.203 67.2593 77.0289 62.3451 78.6807 58.3234C80.3325 54.3017 82.6847 52.2928 85.7375 52.2969C88.9274 52.2969 91.331 54.4157 92.9484 58.6534C94.5658 62.891 95.3747 67.7951 95.3753 73.3657C95.3753 78.8609 94.5381 83.6871 92.8635 87.8445C91.189 92.0018 88.8478 94.0789 85.8399 94.0759H85.8416ZM85.8924 89.3677C87.8469 89.3677 89.3068 87.9188 90.2721 85.021C91.2374 82.1232 91.72 78.4219 91.72 73.9171C91.72 69.0959 91.2316 65.0526 90.2546 61.7872C89.2776 58.5218 87.7556 56.8866 85.6885 56.8816C81.7579 56.8816 79.7927 62.2271 79.7927 72.9182C79.7915 83.8855 81.8241 89.3687 85.8906 89.3677H85.8924Z" fill="#E0E0E0"/>
<path opacity="0.15" d="M59.7647 53.8803C56.7795 53.8803 54.4269 51.8399 52.7069 47.7589C50.9869 43.6779 50.1269 38.7341 50.1269 32.9275C50.1269 27.0818 50.9586 22.1481 52.622 18.1263C54.2855 14.1046 56.632 12.0958 59.6614 12.0998C62.874 12.0998 65.2945 14.2186 66.923 18.4563C68.5515 22.694 69.366 27.5986 69.3666 33.1701C69.3666 38.7015 68.5238 43.5368 66.8381 47.676C65.1525 51.8152 62.7947 53.8834 59.7647 53.8803ZM59.8521 49.2896C61.816 49.2896 63.2838 47.8156 64.2555 44.8676C65.2272 41.9197 65.713 38.2033 65.713 33.7185C65.713 28.7265 65.2158 24.639 64.2213 21.456C63.2269 18.273 61.7017 16.681 59.6457 16.68C55.7378 16.68 53.7839 22.0255 53.7839 32.7166C53.7839 43.7663 55.8061 49.2906 59.8504 49.2896H59.8521ZM60.8355 93.2518H56.5179L84.7839 12.9179H89.0201L60.8355 93.2518ZM85.8416 94.0759C82.8116 94.0759 80.4494 92.0168 78.755 87.8987C77.0607 83.7805 76.21 78.8363 76.203 73.0658C76.203 67.2593 77.0289 62.3451 78.6807 58.3234C80.3325 54.3017 82.6847 52.2928 85.7375 52.2969C88.9274 52.2969 91.331 54.4157 92.9484 58.6534C94.5658 62.891 95.3747 67.7951 95.3753 73.3657C95.3753 78.8609 94.5381 83.6871 92.8635 87.8445C91.189 92.0018 88.8478 94.0789 85.8399 94.0759H85.8416ZM85.8924 89.3677C87.8469 89.3677 89.3068 87.9188 90.2721 85.021C91.2374 82.1232 91.72 78.4219 91.72 73.9171C91.72 69.0959 91.2316 65.0526 90.2546 61.7872C89.2776 58.5218 87.7556 56.8866 85.6885 56.8816C81.7579 56.8816 79.7927 62.2271 79.7927 72.9182C79.7915 83.8855 81.8241 89.3687 85.8906 89.3677H85.8924Z" fill="black"/>
<path d="M57.0525 53.8803C54.0674 53.8803 51.7148 51.8399 49.9948 47.7589C48.2747 43.6779 47.4147 38.7341 47.4147 32.9275C47.4147 27.0818 48.2464 22.1481 49.9099 18.1263C51.5733 14.1046 53.9198 12.0958 56.9493 12.0998C60.1619 12.0998 62.5824 14.2186 64.2109 18.4563C65.8393 22.694 66.6538 27.5986 66.6544 33.1701C66.6544 38.7015 65.8116 43.5368 64.126 47.676C62.4404 51.8152 60.0825 53.8834 57.0525 53.8803ZM57.14 49.2896C59.1038 49.2896 60.5716 47.8156 61.5433 44.8676C62.515 41.9197 63.0009 38.2033 63.0009 33.7185C63.0009 28.7265 62.5036 24.639 61.5092 21.456C60.5147 18.273 58.9895 16.681 56.9335 16.68C53.0257 16.68 51.0717 22.0255 51.0717 32.7166C51.0717 43.7663 53.0939 49.2906 57.1382 49.2896H57.14ZM58.1234 93.2518H53.8058L82.0717 12.9179H86.308L58.1234 93.2518ZM83.1295 94.0759C80.0994 94.0759 77.7372 92.0168 76.0429 87.8987C74.3485 83.7805 73.4978 78.8363 73.4908 73.0658C73.4908 67.2593 74.3167 62.3451 75.9685 58.3234C77.6203 54.3017 79.9726 52.2928 83.0254 52.2969C86.2152 52.2969 88.6188 54.4157 90.2362 58.6534C91.8536 62.891 92.6626 67.7951 92.6632 73.3657C92.6632 78.8609 91.8259 83.6871 90.1514 87.8445C88.4768 92.0018 86.1356 94.0789 83.1277 94.0759H83.1295ZM83.1802 89.3677C85.1347 89.3677 86.5946 87.9188 87.5599 85.021C88.5252 82.1232 89.0079 78.4219 89.0079 73.9171C89.0079 69.0959 88.5194 65.0526 87.5424 61.7872C86.5655 58.5218 85.0429 56.8866 82.9746 56.8816C79.044 56.8816 77.0787 62.2271 77.0787 72.9182C77.0787 83.8855 79.112 89.3687 83.1785 89.3677H83.1802Z" fill="#E0E0E0"/>
<path d="M66.4978 95.2677C66.8583 94.1166 66.4488 92.7064 65.9781 91.6789C65.5074 90.6513 64.9335 89.5846 64.9458 88.2754C64.9633 86.3966 66.1216 85.2862 67.0455 84.2888C67.7326 83.5496 68.3664 82.6726 68.9335 81.6763C69.171 81.2925 69.3674 80.8396 69.5136 80.3384C69.7052 79.6031 69.699 78.767 69.6885 77.9624C69.6483 75.2786 69.5713 72.5988 69.4576 69.923" stroke="#E0E0E0" stroke-width="4" stroke-miterlimit="10"/>
<path d="M71.2178 69.7754C71.2047 69.2844 71.12 68.8071 70.9715 68.3874C70.823 67.9677 70.6156 67.6191 70.3683 67.3738L69.9869 68.6725L69.9982 67.0996C69.8163 67.008 69.6268 66.9688 69.4374 66.9836C69.1011 67.0107 68.777 67.209 68.5061 67.5534C68.2352 67.8977 68.0296 68.3727 67.9155 68.9182C67.8013 69.4637 67.7836 70.0553 67.8647 70.6181C67.9458 71.1809 68.1219 71.6897 68.3709 72.0801C68.6199 72.4705 68.9305 72.725 69.2634 72.8114C69.5964 72.8978 69.9368 72.8123 70.2415 72.5656C70.5462 72.3189 70.8016 71.9221 70.9754 71.4255C71.1492 70.9288 71.2336 70.3546 71.2178 69.7754Z" fill="#35A600"/>
<path d="M68.182 89.6238C68.0033 90.2215 67.7108 90.6953 67.3534 90.9657C66.996 91.2361 66.5955 91.2867 66.219 91.1089C65.8425 90.9311 65.513 90.5359 65.2856 89.9894C65.0583 89.4429 64.947 88.7784 64.9703 88.1073C64.9937 87.4363 65.1504 86.7995 65.414 86.3037C65.6776 85.8079 66.0323 85.4833 66.4184 85.3843C66.8045 85.2853 67.1987 85.418 67.5347 85.76C67.8708 86.102 68.1284 86.6327 68.2642 87.2629L67.2004 88.753L68.3727 88.2829C68.3722 88.7497 68.3068 89.2095 68.182 89.6238Z" fill="#35A600"/>
<path d="M67.3412 83.9272C67.1178 83.9452 66.8946 83.8873 66.6843 83.7568C66.4739 83.6262 66.2805 83.4256 66.1152 83.1664C65.9499 82.9071 65.8158 82.5943 65.7207 82.2459C65.6256 81.8974 65.5712 81.52 65.5608 81.1354C65.5476 80.6762 65.5979 80.2181 65.7078 79.799C65.8095 79.4074 65.9598 79.0588 66.1481 78.778C66.3365 78.4971 66.5583 78.2907 66.7979 78.1734L66.7883 79.3787L67.1741 78.0649C67.6252 78.0285 68.0661 78.3022 68.4 78.8258C68.7339 79.3494 68.9334 80.0799 68.9545 80.8567C68.9756 81.6335 68.8166 82.3929 68.5126 82.9679C68.2086 83.5429 67.7844 83.8863 67.3333 83.9227L67.3412 83.9272Z" fill="#35A600"/>
<path d="M71.4742 79.1918C71.2482 79.2177 71.0215 79.1657 70.8073 79.0388C70.5931 78.9119 70.3958 78.7128 70.2268 78.453C70.0579 78.1932 69.9207 77.878 69.8233 77.5259C69.726 77.1737 69.6704 76.7916 69.6598 76.402C69.6492 76.0124 69.6838 75.623 69.7617 75.2567C69.8395 74.8905 69.959 74.5546 70.1131 74.2688C70.2672 73.9829 70.4529 73.7529 70.6593 73.5922C70.8656 73.4314 71.0885 73.3432 71.3149 73.3325C71.6331 73.3059 71.9492 73.4349 72.2266 73.7047L71.9256 75.1239L72.545 74.1009C72.8775 74.6228 73.076 75.3505 73.0971 76.1243C73.1048 76.3957 73.0901 76.6676 73.0533 76.9319C72.9687 77.5531 72.7687 78.1098 72.4837 78.5177C72.1987 78.9255 71.8443 79.1622 71.4742 79.1918Z" fill="#35A600"/>
<path opacity="0.1" d="M70.9887 70.5573C70.5958 70.6311 70.2144 70.8421 69.8198 70.8842C69.4252 70.9264 68.9921 70.7637 68.7428 70.2349C68.6081 69.9516 68.5416 69.5915 68.4278 69.2812C68.3204 68.9923 68.1731 68.7536 67.9991 68.5866C67.8898 68.9583 67.8278 69.3657 67.8171 69.7819C67.8065 70.1981 67.8474 70.6134 67.9372 71.0001C68.0271 71.3869 68.1638 71.7363 68.3381 72.025C68.5125 72.3136 68.7207 72.535 68.9486 72.6743C69.1766 72.8136 69.4192 72.8677 69.6602 72.8329C69.9013 72.7981 70.1353 72.6752 70.3466 72.4725C70.5579 72.2698 70.7417 71.9918 70.8858 71.6572C71.0298 71.3225 71.1308 70.9388 71.182 70.5317C71.1173 70.5377 71.0534 70.5453 70.9887 70.5573Z" fill="black"/>
<path opacity="0.1" d="M71.4742 79.1918C71.1808 79.2149 70.8889 79.1069 70.6269 78.8785C70.3649 78.6501 70.1416 78.309 69.9786 77.8882C69.8157 77.4674 69.7187 76.9812 69.697 76.4768C69.6753 75.9724 69.7296 75.467 69.8548 75.0094C69.9897 75.1668 70.1058 75.3673 70.1968 75.6C70.3185 75.9149 70.3919 76.2795 70.5346 76.5688C70.797 77.1067 71.2528 77.2814 71.6632 77.2498C72.0735 77.2181 72.4707 77.0163 72.8801 76.9485C72.937 76.9394 72.9947 76.9334 73.0551 76.9304C72.9705 77.5523 72.7703 78.1098 72.485 78.5179C72.1997 78.9261 71.8447 79.1627 71.4742 79.1918Z" fill="black"/>
<path opacity="0.1" d="M67.3412 83.9272C67.1179 83.9452 66.8946 83.8873 66.6843 83.7568C66.4739 83.6262 66.2806 83.4256 66.1152 83.1664C65.9499 82.9071 65.8158 82.5943 65.7207 82.2458C65.6256 81.8974 65.5712 81.52 65.5608 81.1354C65.5476 80.6762 65.5979 80.2181 65.7078 79.799C65.8482 79.9601 65.9701 80.1644 66.0674 80.4017C66.1995 80.7226 66.2826 81.0932 66.4374 81.39C66.7244 81.9399 67.2074 82.1343 67.6422 82.1162C68.077 82.0981 68.4698 81.9234 68.8889 81.8676C68.785 82.4431 68.5807 82.9496 68.3038 83.3181C68.0269 83.6866 67.6908 83.8993 67.3412 83.9272Z" fill="black"/>
<path opacity="0.1" d="M68.182 89.6238C67.9839 90.2943 67.6437 90.808 67.2318 91.0586C66.8199 91.3092 66.3678 91.2776 65.9691 90.9703C65.5703 90.6629 65.2554 90.1034 65.0896 89.4075C64.9237 88.7115 64.9195 87.9324 65.0779 87.2313C65.218 87.3901 65.3439 87.5835 65.4514 87.8053C65.6133 88.1458 65.72 88.5315 65.9073 88.8479C66.2572 89.4355 66.8172 89.678 67.3176 89.7006C67.6064 89.7047 67.895 89.679 68.182 89.6238Z" fill="black"/>
<path d="M92.832 95.117C93.1925 93.9659 92.783 92.5557 92.3123 91.5282C91.8416 90.5007 91.2677 89.4339 91.28 88.1247C91.2975 86.2459 92.4558 85.1355 93.3797 84.1381C94.0668 83.3989 94.7006 82.522 95.2677 81.5256C95.5052 81.1418 95.7015 80.6889 95.8477 80.1877C96.0393 79.4525 96.0332 78.6163 96.0227 77.8118C95.9825 75.1279 95.9055 72.4481 95.7917 69.7723" stroke="#E0E0E0" stroke-width="4" stroke-miterlimit="10"/>
<path d="M97.552 69.6247C97.5389 69.1338 97.4542 68.6564 97.3057 68.2367C97.1572 67.817 96.9498 67.4684 96.7025 67.2231L96.3211 68.5218L96.3324 66.9489C96.1505 66.8574 95.961 66.8182 95.7716 66.8329C95.4353 66.86 95.1112 67.0583 94.8403 67.4027C94.5694 67.7471 94.3638 68.222 94.2497 68.7676C94.1355 69.3131 94.1179 69.9046 94.1989 70.4675C94.28 71.0303 94.4561 71.539 94.7051 71.9294C94.9541 72.3198 95.2647 72.5743 95.5976 72.6608C95.9306 72.7472 96.271 72.6616 96.5757 72.4149C96.8804 72.1682 97.1358 71.7715 97.3096 71.2748C97.4834 70.7782 97.5678 70.2039 97.552 69.6247Z" fill="#35A600"/>
<path d="M94.5162 89.4731C94.3375 90.0709 94.045 90.5447 93.6876 90.8151C93.3302 91.0854 92.9297 91.136 92.5532 90.9582C92.1767 90.7805 91.8472 90.3852 91.6198 89.8387C91.3925 89.2922 91.2812 88.6277 91.3045 87.9567C91.3279 87.2856 91.4846 86.6488 91.7482 86.153C92.0119 85.6572 92.3665 85.3327 92.7526 85.2337C93.1387 85.1347 93.5328 85.2673 93.8689 85.6094C94.205 85.9514 94.4626 86.482 94.5984 87.1122L93.5346 88.6023L94.7069 88.1322C94.7064 88.599 94.641 89.0588 94.5162 89.4731Z" fill="#35A600"/>
<path d="M93.6754 83.7765C93.4521 83.7946 93.2289 83.7367 93.0185 83.6061C92.8081 83.4756 92.6148 83.2749 92.4494 83.0157C92.2841 82.7564 92.15 82.4437 92.0549 82.0952C91.9598 81.7467 91.9055 81.3694 91.895 80.9847C91.8818 80.5255 91.9321 80.0674 92.042 79.6483C92.1437 79.2567 92.294 78.9082 92.4824 78.6273C92.6707 78.3464 92.8925 78.1401 93.1321 78.0227L93.1225 79.228L93.5083 77.9142H93.5127C93.7361 77.8962 93.9593 77.9541 94.1696 78.0847C94.38 78.2153 94.5734 78.4159 94.7387 78.6751C94.904 78.9344 95.0381 79.2471 95.1332 79.5956C95.2283 79.9441 95.2827 80.3214 95.2931 80.706C95.3036 81.0906 95.27 81.4751 95.1941 81.8373C95.1183 82.1995 95.0018 82.5325 94.8513 82.8172C94.7007 83.1019 94.5191 83.3328 94.3168 83.4966C94.1144 83.6604 93.8953 83.754 93.6719 83.772L93.6754 83.7765Z" fill="#35A600"/>
<path d="M97.8084 79.0412C97.5824 79.067 97.3557 79.015 97.1415 78.8881C96.9273 78.7613 96.73 78.5621 96.561 78.3023C96.3921 78.0426 96.2549 77.7274 96.1575 77.3752C96.0602 77.023 96.0046 76.641 95.994 76.2513C95.9834 75.8617 96.018 75.4724 96.0959 75.1061C96.1737 74.7398 96.2932 74.4039 96.4473 74.1181C96.6014 73.8323 96.7871 73.6022 96.9935 73.4415C97.1999 73.2807 97.4228 73.1925 97.6492 73.1818C97.9674 73.1552 98.2834 73.2842 98.5608 73.554L98.2599 74.9732L98.8793 73.9502C99.2117 74.4721 99.4103 75.1999 99.4313 75.9737C99.4391 76.2451 99.4244 76.517 99.3876 76.7812C99.3029 77.4024 99.1029 77.9592 98.818 78.367C98.533 78.7748 98.1785 79.0115 97.8084 79.0412Z" fill="#35A600"/>
<path opacity="0.1" d="M97.3229 70.4066C96.93 70.4805 96.5486 70.6914 96.154 70.7336C95.7594 70.7758 95.3263 70.613 95.077 70.0842C94.9423 69.801 94.8758 69.4409 94.762 69.1305C94.6546 68.8416 94.5073 68.603 94.3333 68.436C94.224 68.8076 94.162 69.2151 94.1513 69.6312C94.1407 70.0474 94.1816 70.4627 94.2714 70.8495C94.3613 71.2362 94.498 71.5856 94.6724 71.8743C94.8468 72.163 95.0549 72.3844 95.2828 72.5237C95.5108 72.663 95.7534 72.717 95.9945 72.6822C96.2355 72.6474 96.4695 72.5246 96.6808 72.3218C96.8921 72.1191 97.0759 71.8412 97.22 71.5065C97.364 71.1718 97.465 70.7882 97.5162 70.381C97.4515 70.3871 97.3876 70.3946 97.3229 70.4066Z" fill="black"/>
<path opacity="0.1" d="M97.8084 79.0412C97.515 79.0642 97.2232 78.9563 96.9611 78.7279C96.6991 78.4995 96.4758 78.1583 96.3128 77.7375C96.1499 77.3167 96.0529 76.8305 96.0312 76.3262C96.0095 75.8218 96.0638 75.3163 96.189 74.8588C96.3239 75.0162 96.44 75.2167 96.5311 75.4494C96.6527 75.7642 96.7262 76.1289 96.8688 76.4181C97.1313 76.956 97.5871 77.1308 97.9974 77.0991C98.4077 77.0675 98.8049 76.8656 99.2144 76.7978C99.2713 76.7888 99.329 76.7827 99.3894 76.7797C99.3048 77.4017 99.1046 77.9591 98.8193 78.3673C98.5339 78.7755 98.179 79.0121 97.8084 79.0412Z" fill="black"/>
<path opacity="0.1" d="M93.6754 83.7765C93.4521 83.7946 93.2288 83.7367 93.0185 83.6061C92.8081 83.4756 92.6148 83.2749 92.4494 83.0157C92.2841 82.7564 92.15 82.4437 92.0549 82.0952C91.9598 81.7467 91.9055 81.3694 91.895 80.9847C91.8818 80.5255 91.9321 80.0674 92.042 79.6483C92.1824 79.8094 92.3043 80.0137 92.4016 80.251C92.5337 80.5719 92.6168 80.9425 92.7717 81.2394C93.0586 81.7893 93.5416 81.9836 93.9764 81.9656C94.3981 81.9505 94.804 81.7727 95.2231 81.717C95.1192 82.2925 94.9149 82.7989 94.638 83.1674C94.3611 83.5359 94.025 83.7486 93.6754 83.7765Z" fill="black"/>
<path opacity="0.1" d="M94.5162 89.4731C94.318 90.1436 93.9778 90.6573 93.566 90.9079C93.1541 91.1586 92.702 91.1269 92.3032 90.8196C91.9045 90.5123 91.5896 89.9528 91.4238 89.2568C91.2579 88.5609 91.2537 87.7817 91.4121 87.0806C91.5522 87.2394 91.6781 87.4328 91.7856 87.6546C91.9475 87.9951 92.0542 88.3808 92.2415 88.6972C92.5914 89.2848 93.1513 89.5274 93.6518 89.55C93.9405 89.554 94.2292 89.5284 94.5162 89.4731Z" fill="black"/>
<path d="M9.61768 93.1584C9.25723 92.0073 9.66668 90.5971 10.1374 89.5696C10.6081 88.542 11.182 87.4753 11.1697 86.1661C11.1522 84.2873 9.99389 83.1769 9.07 82.1795C8.38288 81.4403 7.74912 80.5633 7.18199 79.567C6.94449 79.1832 6.74814 78.7303 6.60194 78.2291C6.41034 77.4939 6.41646 76.6577 6.42696 75.8531C6.4672 73.1693 6.54419 70.4895 6.65793 67.8137" stroke="#E0E0E0" stroke-width="4" stroke-miterlimit="10"/>
<path d="M4.89767 67.6661C4.91083 67.1752 4.99555 66.6978 5.14401 66.2781C5.29248 65.8584 5.49991 65.5098 5.74719 65.2645L6.12864 66.5632L6.11727 64.9903C6.29922 64.8988 6.4887 64.8596 6.67807 64.8743C7.01442 64.9015 7.33854 65.0998 7.60945 65.4441C7.88036 65.7885 8.08589 66.2635 8.20005 66.809C8.31421 67.3545 8.33187 67.946 8.25081 68.5088C8.16974 69.0717 7.99358 69.5804 7.74461 69.9708C7.49564 70.3612 7.18504 70.6157 6.85208 70.7021C6.51912 70.7886 6.17876 70.703 5.87403 70.4563C5.5693 70.2096 5.3139 69.8129 5.14011 69.3162C4.96632 68.8196 4.88195 68.2453 4.89767 67.6661Z" fill="#35A600"/>
<path d="M7.93351 87.5145C8.11215 88.1122 8.4047 88.586 8.76211 88.8564C9.11951 89.1268 9.52003 89.1774 9.89651 88.9996C10.273 88.8218 10.6025 88.4266 10.8299 87.8801C11.0572 87.3336 11.1685 86.6691 11.1451 85.998C11.1218 85.327 10.9651 84.6902 10.7015 84.1944C10.4378 83.6986 10.0832 83.374 9.6971 83.275C9.31098 83.176 8.91684 83.3087 8.58077 83.6507C8.2447 83.9927 7.98713 84.5234 7.85127 85.1536L8.91513 86.6437L7.74278 86.1736C7.74327 86.6404 7.80867 87.1002 7.93351 87.5145Z" fill="#35A600"/>
<path d="M8.77429 81.8179C8.99765 81.8359 9.22088 81.778 9.43123 81.6475C9.64159 81.5169 9.83495 81.3163 10.0003 81.0571C10.1656 80.7978 10.2997 80.485 10.3948 80.1366C10.4899 79.7881 10.5443 79.4107 10.5547 79.0261C10.5679 78.5669 10.5176 78.1088 10.4077 77.6897C10.306 77.2981 10.1557 76.9495 9.96736 76.6687C9.77902 76.3878 9.55724 76.1814 9.3176 76.0641L9.32723 77.2694L8.9414 75.9556C8.49032 75.9192 8.04933 76.1929 7.71544 76.7165C7.38155 77.2401 7.18211 77.9706 7.161 78.7474C7.13988 79.5242 7.29882 80.2836 7.60285 80.8586C7.90688 81.4336 8.33109 81.777 8.78217 81.8134L8.77429 81.8179Z" fill="#35A600"/>
<path d="M4.64132 77.0826C4.86732 77.1084 5.09404 77.0564 5.30822 76.9295C5.5224 76.8027 5.71974 76.6035 5.88869 76.3437C6.05764 76.0839 6.19481 75.7688 6.29218 75.4166C6.38954 75.0644 6.44515 74.6823 6.45573 74.2927C6.46632 73.9031 6.43168 73.5137 6.35384 73.1475C6.276 72.7812 6.15653 72.4453 6.0024 72.1595C5.84828 71.8736 5.6626 71.6436 5.45623 71.4829C5.24987 71.3221 5.02696 71.2338 4.80055 71.2232C4.48383 71.198 4.16939 71.327 3.89328 71.5954L4.19425 73.0146L3.57045 71.9961C3.23863 72.5169 3.04012 73.2428 3.01839 74.015C3.01064 74.2864 3.02537 74.5584 3.06214 74.8226C3.14681 75.4438 3.34679 76.0006 3.63177 76.4084C3.91675 76.8162 4.27118 77.0529 4.64132 77.0826Z" fill="#35A600"/>
<path opacity="0.1" d="M5.12685 68.448C5.51968 68.5218 5.90113 68.7327 6.29571 68.7749C6.69028 68.8171 7.12335 68.6544 7.37269 68.1256C7.50743 67.8423 7.57392 67.4822 7.68765 67.1719C7.79506 66.8829 7.94235 66.6443 8.11635 66.4773C8.22564 66.8489 8.28768 67.2564 8.29836 67.6726C8.30903 68.0887 8.26808 68.504 8.17824 68.8908C8.0884 69.2776 7.95173 69.627 7.77734 69.9157C7.60294 70.2043 7.39483 70.4257 7.16686 70.565C6.93889 70.7043 6.6963 70.7584 6.45525 70.7236C6.21419 70.6888 5.98021 70.5659 5.7689 70.3632C5.55758 70.1605 5.37377 69.8825 5.22972 69.5479C5.08568 69.2132 4.98469 68.8295 4.9335 68.4224C4.99824 68.4284 5.06211 68.4359 5.12685 68.448Z" fill="black"/>
<path opacity="0.1" d="M4.6413 77.0825C4.93469 77.1055 5.22655 76.9976 5.48859 76.7692C5.75062 76.5408 5.97393 76.1996 6.13686 75.7789C6.29979 75.3581 6.39681 74.8719 6.41852 74.3675C6.44022 73.8632 6.38586 73.3577 6.26073 72.9001C6.12584 73.0576 6.00972 73.2581 5.91864 73.4907C5.79703 73.8056 5.72354 74.1702 5.58094 74.4595C5.31847 74.9974 4.86265 75.1721 4.45233 75.1405C4.04201 75.1088 3.64481 74.907 3.23536 74.8392C3.17849 74.8301 3.12075 74.8241 3.06038 74.8211C3.14497 75.443 3.34514 76.0005 3.63048 76.4086C3.91583 76.8168 4.27074 77.0534 4.6413 77.0825Z" fill="black"/>
<path opacity="0.1" d="M8.77427 81.8179C8.99763 81.836 9.22085 81.778 9.43121 81.6475C9.64157 81.5169 9.83493 81.3163 10.0003 81.0571C10.1656 80.7978 10.2996 80.485 10.3948 80.1366C10.4899 79.7881 10.5442 79.4108 10.5547 79.0261C10.5679 78.5669 10.5175 78.1088 10.4077 77.6897C10.2673 77.8508 10.1454 78.0551 10.0481 78.2924C9.916 78.6133 9.83289 78.9839 9.67803 79.2807C9.39107 79.8307 8.90813 80.025 8.47331 80.0069C8.05161 79.9919 7.64567 79.8141 7.22659 79.7583C7.33047 80.3339 7.53475 80.8403 7.81167 81.2088C8.08858 81.5773 8.42469 81.79 8.77427 81.8179Z" fill="black"/>
<path opacity="0.1" d="M7.93352 87.5145C8.13163 88.185 8.47183 88.6987 8.88373 88.9493C9.29562 89.1999 9.7477 89.1683 10.1464 88.861C10.5452 88.5536 10.8601 87.9941 11.0259 87.2982C11.1918 86.6022 11.196 85.8231 11.0376 85.1219C10.8975 85.2808 10.7716 85.4742 10.6641 85.696C10.5022 86.0365 10.3955 86.4222 10.2082 86.7386C9.85828 87.3262 9.29835 87.5687 8.79791 87.5913C8.50915 87.5954 8.2205 87.5697 7.93352 87.5145Z" fill="black"/>
<path d="M58.9239 79.0396C58.9256 78.6744 58.8775 78.3135 58.7836 77.986C58.6897 77.6584 58.5526 77.3732 58.3832 77.1533C58.3622 75.7717 57.7901 74.6433 57.0543 74.4685C56.9974 73.9991 56.8699 73.5637 56.6843 73.2062C56.4988 72.8486 56.2619 72.5814 55.9974 72.4315C55.9331 72.3964 55.8673 72.3697 55.8006 72.3517H55.7813L55.7472 72.3441H55.7183H55.6895H55.6518H55.6291H55.567C54.8163 72.3441 54.1916 73.3325 54.063 74.6357C53.5775 74.4429 53.1321 74.693 53.0525 75.2218C53.032 75.362 53.0365 75.5096 53.0656 75.6452C53.1479 76.055 53.4156 76.4467 53.7787 76.6411L53.8259 76.6652C53.8496 76.6772 53.8732 76.6863 53.8968 76.6953H53.9125C53.7791 77.1854 53.7601 77.7452 53.8596 78.2587C53.9591 78.7722 54.1695 79.2001 54.4471 79.454C54.4362 79.4643 54.4256 79.4759 54.4156 79.4886C54.3708 79.5595 54.335 79.6457 54.3106 79.7417C54.2229 80.0069 54.1547 80.2898 54.1076 80.584C54.0727 80.8356 54.0665 81.0992 54.0202 81.3478C53.9405 81.7998 53.7358 82.1961 53.7122 82.6767C53.7017 82.8906 53.7218 83.1422 53.6335 83.2884C53.6115 83.321 53.5881 83.3507 53.5635 83.3773C53.5015 83.4503 53.4491 83.5447 53.4095 83.6545C53.3837 83.7453 53.3491 83.8279 53.3071 83.8986C53.2275 84.0025 53.0963 83.992 53.0569 84.1517C53.0175 84.3114 53.119 84.4997 53.0954 84.6745C53.0761 84.8161 52.986 84.8809 52.9204 84.9758C52.847 85.1129 52.7957 85.2807 52.7717 85.4625C52.641 85.5059 52.5063 85.4991 52.3773 85.4426C52.2483 85.386 52.1282 85.2812 52.0254 85.1355C52.0606 85.2907 52.0864 85.4518 52.1024 85.6161C51.9983 85.4248 51.8268 85.369 51.6999 85.2696C51.5363 85.1405 51.3903 84.9537 51.2712 84.7212L51.5005 84.6669L50.4856 82.0153L50.1864 81.9098L50.455 82.7972C50.433 82.8154 50.4137 82.8419 50.3985 82.8748C50.3834 82.9077 50.3728 82.9461 50.3675 82.987C50.353 83.0855 50.3495 83.1877 50.357 83.2884C50.3712 83.5262 50.3943 83.7622 50.4261 83.995L50.504 84.6187C50.5106 84.6773 50.519 84.7351 50.5293 84.792C50.4279 84.7857 50.3264 84.8055 50.2284 84.8508C50.0272 84.7226 49.8177 84.6371 49.6046 84.5961C49.5577 84.582 49.5096 84.5861 49.4637 84.6082C49.4117 84.6495 49.3666 84.7127 49.3325 84.792C49.1575 85.1404 49.0022 85.5167 48.8688 85.916C48.3237 87.5491 47.5958 88.9744 46.9143 90.4509C46.4436 90.7809 45.9694 91.0943 45.4943 91.4046L44.4733 92.0751C44.2695 92.2092 44.0578 92.3463 43.8408 92.3222C43.7428 92.3116 43.6238 92.286 43.5687 92.4291C43.5419 92.5001 43.5209 92.5772 43.5066 92.6582C43.4707 92.6582 43.4348 92.6732 43.4016 92.6762H43.3955C43.3307 92.399 43.2747 92.1022 43.1505 91.9003C43.1255 91.9069 43.1018 91.9242 43.0817 91.9505C43.0615 91.9768 43.0455 92.0113 43.035 92.051C43.0105 92.1293 42.9956 92.2152 42.9676 92.2875C42.9125 92.4261 42.8172 92.4939 42.7489 92.6115C42.6807 92.729 42.6378 92.9128 42.5643 93.0273C42.4614 93.1561 42.3408 93.2366 42.2144 93.2608C42.0249 93.3376 41.8423 93.4572 41.671 93.6164C41.6079 93.6832 41.5404 93.7368 41.4698 93.7761C41.3923 93.8017 41.3129 93.8063 41.2345 93.7896L40.6938 93.7218C40.6457 93.711 40.5968 93.7146 40.5494 93.7324C40.4937 93.7676 40.4464 93.8335 40.4147 93.9199C40.3831 94.0063 40.3689 94.1083 40.3745 94.21C40.381 94.3109 40.3996 94.4085 40.4289 94.4966C40.4583 94.5847 40.4978 94.6615 40.5451 94.7223C40.6389 94.8408 40.7428 94.9337 40.853 94.998C41.3229 95.3113 41.8072 95.5558 42.301 95.7287V95.917C42.6432 96.2138 43.021 96.3686 43.4042 96.369C43.4324 96.3728 43.4608 96.364 43.4864 96.3434C43.5219 96.2976 43.5464 96.2312 43.5556 96.1566C43.6703 95.5657 43.7428 94.9531 43.7717 94.332C43.8392 94.3245 43.9054 94.2954 43.9668 94.2462C44.1531 94.1588 44.3377 94.3787 44.5293 94.4149C44.7655 94.4586 44.9851 94.222 45.2082 94.0759C45.2406 94.0548 45.273 94.0367 45.3054 94.0187C45.2417 94.1604 45.1666 94.2858 45.0823 94.3908C44.9895 94.5053 44.8854 94.5897 44.7944 94.7087C44.7188 94.8277 44.6378 94.936 44.5521 95.0326C44.4917 95.0811 44.4294 95.1223 44.3657 95.1562C44.2734 95.2142 44.1853 95.2905 44.1032 95.3837C44.0297 95.4582 43.9674 95.5614 43.9213 95.685C43.898 95.7427 43.8837 95.8096 43.8798 95.8795C43.8758 95.9494 43.8823 96.0198 43.8986 96.0842C43.9149 96.1485 43.9405 96.2046 43.9729 96.247C44.0054 96.2895 44.0436 96.317 44.084 96.3268C44.1571 96.3492 44.2317 96.3527 44.3053 96.3374C44.5976 96.2997 44.8889 96.253 45.1802 96.2078C45.3036 96.1936 45.4261 96.1634 45.5468 96.1174C45.6107 96.0903 45.6737 96.0541 45.7376 96.0255C45.8465 95.976 45.9583 95.9472 46.0709 95.9396C46.1036 95.9352 46.1365 95.9408 46.168 95.9562C46.2362 95.9939 46.2844 96.1069 46.3535 96.137C46.3983 96.1445 46.4436 96.1337 46.4856 96.1054C46.6989 96.0256 46.9165 95.9857 47.1348 95.9863C47.2301 95.9773 47.3421 95.9456 47.3867 95.7935C47.441 95.6051 47.35 95.3942 47.3141 95.1908C47.2958 95.0615 47.2859 94.9291 47.2844 94.7961C47.2677 94.4678 47.213 94.1486 47.1234 93.8574C47.0758 93.7216 47.0356 93.5783 47.0035 93.4296C47.4216 93.1557 47.8216 92.8062 48.1969 92.387C48.4121 92.1565 48.6343 91.9078 48.8775 91.8235C49.161 91.7255 49.4532 91.8551 49.7323 91.9937C50.3971 92.3249 51.051 92.7177 51.6912 93.1704C51.9974 93.3859 52.3036 93.6149 52.6168 93.7731C52.7084 93.9859 52.8192 94.172 52.9449 94.3245C53.1549 94.558 53.4112 94.6258 53.658 94.659C53.9912 94.7114 54.3259 94.733 54.6606 94.7238C54.916 94.7162 55.1794 94.6861 55.4077 94.4857C55.4635 94.4364 55.516 94.3768 55.5643 94.3079C55.7393 94.3622 55.9187 94.201 56.056 93.9945C56.2378 93.7282 56.3689 93.3739 56.4322 92.9776C56.5127 92.4337 56.4506 91.7994 56.6448 91.3549C56.6965 91.2359 56.7638 91.1395 56.8146 91.0189C56.877 90.8575 56.9077 90.6658 56.9021 90.472L56.9108 90.4494C56.9548 90.2746 56.9842 90.09 56.9983 89.901C57.0213 89.7534 57.0505 89.6089 57.0858 89.4686C57.1844 89.0482 57.2703 88.6192 57.343 88.1834C57.3936 87.8943 57.4333 87.5999 57.462 87.3021C57.483 87.064 57.4952 86.8245 57.5066 86.5849C57.5206 86.2099 57.563 85.8397 57.6326 85.4835C57.8053 84.6336 57.9029 83.7438 57.9222 82.8439C57.9222 82.8258 57.9222 82.8093 57.9222 82.7912C58.1762 82.7432 58.4107 82.5338 58.5797 82.2039C58.7488 81.874 58.8404 81.4473 58.8364 81.0073C58.8367 80.7421 58.8045 80.4798 58.742 80.2374C58.8627 79.8726 58.9254 79.4595 58.9239 79.0396ZM53.9764 89.3918C53.9913 89.4837 54.0088 89.5756 54.0263 89.6675C53.9458 89.5304 53.8662 89.3887 53.7848 89.2532C53.8172 89.2697 53.8496 89.2878 53.881 89.3074C53.9146 89.3303 53.9468 89.3585 53.9773 89.3918H53.9764ZM53.5845 88.9398C53.1068 88.2256 52.5538 87.6712 52.0648 86.9811C52.3272 87.2086 52.5897 87.4723 52.8522 87.7254C53.1578 88.0268 53.4669 88.315 53.7796 88.5902C53.7283 88.7242 53.663 88.8407 53.5871 88.9337L53.5845 88.9398ZM53.7883 87.1409L53.8111 87.1002C53.8111 87.2011 53.8111 87.296 53.8111 87.3819C53.7682 87.3578 53.7236 87.3337 53.6825 87.3066C53.7202 87.2535 53.7559 87.1961 53.7892 87.1348L53.7883 87.1409ZM49.5827 89.0754C49.7794 88.6922 49.9505 88.2723 50.0928 87.8234C50.2817 88.3944 50.5897 88.8057 50.8522 89.2833C50.4305 89.1808 50.0079 89.101 49.5836 89.0693L49.5827 89.0754Z" fill="url(#paint0_linear)"/>
<path d="M50.2652 82.1298L50.567 82.2353L51.5949 84.8508L51.1409 84.9562L50.2652 82.1298Z" fill="#2F2E41"/>
<path d="M42.9554 92.7455C43.0368 93.2091 43.1371 93.6622 43.2555 94.1015C43.5961 93.9788 43.9312 93.8142 44.2581 93.6088C44.1948 93.4391 44.1253 93.2766 44.0499 93.1222C43.9695 92.9684 43.8734 92.8412 43.7664 92.7471C43.6623 92.6687 43.5337 92.7275 43.4226 92.738C43.2669 92.7481 43.1111 92.7506 42.9554 92.7455Z" fill="#DCA2A2"/>
<path d="M43.7682 93.4446C43.5984 93.3527 43.4943 93.0574 43.4252 92.7727C43.3561 92.4879 43.3001 92.1775 43.1689 91.9681C43.1439 91.9749 43.1203 91.9921 43.1001 92.0184C43.08 92.0447 43.0639 92.0792 43.0534 92.1188C43.028 92.1941 43.0131 92.28 42.9843 92.3523C42.93 92.4879 42.8338 92.5542 42.7647 92.6702C42.6955 92.7862 42.6527 92.9625 42.5783 93.0785C42.4751 93.2062 42.3546 93.2861 42.2284 93.3105C42.0376 93.3849 41.8535 93.5025 41.6807 93.6601C41.6167 93.7239 41.5486 93.7745 41.4777 93.8107C41.3995 93.8363 41.3196 93.8409 41.2406 93.8243L40.6955 93.7565C40.6471 93.7461 40.598 93.7502 40.5503 93.7685C40.4948 93.8018 40.4474 93.8663 40.4156 93.9515C40.3839 94.0367 40.3697 94.1378 40.3753 94.2386C40.3826 94.3391 40.4019 94.4358 40.432 94.5227C40.4621 94.6096 40.5024 94.6847 40.5503 94.7433C40.6451 94.86 40.7495 94.9514 40.86 95.0145C41.3349 95.3221 41.8235 95.5624 42.3211 95.7332V95.9185C42.6669 96.2133 43.0473 96.3679 43.4331 96.3705C43.463 96.3751 43.4932 96.3662 43.5206 96.3449C43.556 96.3002 43.5809 96.2349 43.5906 96.1611C43.7213 95.5028 43.7976 94.816 43.8172 94.1211C43.8272 93.9454 43.8195 93.768 43.7944 93.5968C43.7647 93.428 43.8662 93.4989 43.7717 93.4326" fill="#2F2E41"/>
<path d="M54.2178 89.907C52.6019 90.0758 51.0061 89.2592 49.3876 89.1718C49.1867 89.1508 48.9851 89.173 48.7874 89.2381C48.5813 89.3332 48.3818 89.4666 48.1925 89.6358C47.3255 90.3304 46.4278 90.9059 45.5311 91.4815L44.5022 92.1414C44.2957 92.2725 44.0831 92.4066 43.8635 92.384C43.7655 92.3734 43.6457 92.3478 43.5897 92.4894C43.4226 92.9158 43.5022 93.5441 43.6124 94.0232C43.6483 94.1738 43.7087 94.3471 43.8049 94.3652C43.873 94.3572 43.9397 94.3281 44.0018 94.2793C44.189 94.1934 44.3762 94.4104 44.5687 94.445C44.8075 94.4887 45.0289 94.2552 45.2537 94.1121C45.6264 93.8755 46.0341 93.8831 46.4261 93.7701C47.084 93.5817 47.6929 93.0559 48.2633 92.4563C48.4803 92.2288 48.7008 91.9847 48.9492 91.9018C49.2353 91.8054 49.5302 91.932 49.811 92.0691C50.4805 92.3955 51.1397 92.7822 51.7856 93.2277C52.1219 93.4792 52.4666 93.6956 52.818 93.8755C53.5838 94.2228 54.394 94.1415 55.1312 93.6435C55.3937 93.4672 55.6701 93.1569 55.685 92.6762C55.6938 92.402 55.5704 92.161 55.4882 91.9229C55.4348 91.7723 55.3823 91.6216 55.3246 91.4785C55.0463 90.7794 54.7086 89.8558 54.2178 89.907Z" fill="#2F2E41"/>
<path opacity="0.1" d="M54.2178 89.907C52.6019 90.0758 51.0061 89.2592 49.3876 89.1718C49.1867 89.1508 48.9851 89.173 48.7874 89.2381C48.5813 89.3332 48.3818 89.4666 48.1925 89.6358C47.3255 90.3304 46.4278 90.9059 45.5311 91.4815L44.5022 92.1414C44.2957 92.2725 44.0831 92.4066 43.8635 92.384C43.7655 92.3734 43.6457 92.3478 43.5897 92.4894C43.4226 92.9158 43.5022 93.5441 43.6124 94.0232C43.6483 94.1738 43.7087 94.3471 43.8049 94.3652C43.873 94.3572 43.9397 94.3281 44.0018 94.2793C44.189 94.1934 44.3762 94.4104 44.5687 94.445C44.8075 94.4887 45.0289 94.2552 45.2537 94.1121C45.6264 93.8755 46.0341 93.8831 46.4261 93.7701C47.084 93.5817 47.6929 93.0559 48.2633 92.4563C48.4803 92.2288 48.7008 91.9847 48.9492 91.9018C49.2353 91.8054 49.5302 91.932 49.811 92.0691C50.4805 92.3955 51.1397 92.7822 51.7856 93.2277C52.1219 93.4792 52.4666 93.6956 52.818 93.8755C53.5838 94.2228 54.394 94.1415 55.1312 93.6435C55.3937 93.4672 55.6701 93.1569 55.685 92.6762C55.6938 92.402 55.5704 92.161 55.4882 91.9229C55.4348 91.7723 55.3823 91.6216 55.3246 91.4785C55.0463 90.7794 54.7086 89.8558 54.2178 89.907Z" fill="black"/>
<path d="M46.0569 92.8811C46.31 93.0288 46.5649 93.1654 46.8215 93.2909C46.9659 92.8826 47.2354 92.5994 47.2966 92.1338C47.3001 92.1137 47.3001 92.0922 47.2966 92.0721C47.2899 92.0522 47.2798 92.0365 47.2677 92.0269C47.0833 91.8517 46.8786 91.7488 46.6684 91.7255C46.5022 91.7075 46.427 92.0058 46.3517 92.2152C46.3255 92.2996 46.1242 92.9203 46.0569 92.8811Z" fill="#DCA2A2"/>
<path d="M46.4129 92.5828C46.3374 92.5612 46.2653 92.5126 46.2013 92.4402C46.1372 92.3679 46.0827 92.2732 46.0411 92.1625C46.0052 92.0555 45.9676 91.9109 45.8959 91.9184C45.8241 91.9259 45.7996 92.0615 45.7848 92.1745C45.7363 92.5966 45.6664 93.0106 45.5757 93.4115C45.4842 93.8136 45.3294 94.1637 45.1286 94.4224C45.035 94.5339 44.9309 94.6183 44.839 94.7358C44.7625 94.8534 44.6805 94.9602 44.5941 95.0552C44.5331 95.1032 44.4703 95.1435 44.4059 95.1758C44.3117 95.2324 44.2215 95.3078 44.1374 95.4002C44.0636 95.4747 44.0009 95.5779 43.9545 95.7016C43.9321 95.7644 43.919 95.8356 43.9162 95.9091C43.9135 95.9827 43.9212 96.0562 43.9388 96.1234C43.9576 96.178 43.9829 96.2252 44.0131 96.2618C44.0432 96.2984 44.0775 96.3236 44.1137 96.3359C44.1875 96.357 44.2626 96.36 44.3368 96.3449C44.6317 96.3072 44.9256 96.262 45.2196 96.2168C45.344 96.2036 45.4677 96.1744 45.5897 96.1295C45.6544 96.1023 45.7174 96.0662 45.7813 96.0376C45.8915 95.9892 46.0044 95.9609 46.1181 95.9532C46.1511 95.9489 46.1842 95.9545 46.2161 95.9697C46.2843 96.0074 46.3325 96.1204 46.4024 96.1475C46.4475 96.1556 46.4931 96.1453 46.5354 96.1174C46.7506 96.039 46.9699 95.9996 47.1898 95.9999C47.2861 95.9908 47.3998 95.9592 47.4436 95.81C47.4987 95.6247 47.4077 95.4168 47.3709 95.2179C47.3528 95.0906 47.3425 94.9603 47.3403 94.8292C47.3238 94.5055 47.2687 94.1911 47.1785 93.9057C47.1032 93.6676 47.0035 93.4055 47.0534 93.1523C47.0802 93.0733 47.0972 92.9856 47.1032 92.8947C47.091 92.4864 46.5459 92.6371 46.4129 92.5828Z" fill="#2F2E41"/>
<path d="M51.7953 85.4444C51.509 85.2268 51.2797 84.8345 51.1514 84.343C51.1251 84.2376 51.1024 84.1276 51.077 84.0206C50.9918 83.667 50.86 83.3523 50.692 83.1016C50.6741 83.0675 50.652 83.0405 50.6274 83.0226C50.6028 83.0046 50.5762 82.9961 50.5494 82.9976C50.5236 83.0109 50.5002 83.0357 50.4818 83.0696C50.4633 83.1035 50.4505 83.1452 50.4444 83.1904C50.4295 83.2887 50.4256 83.391 50.4331 83.4918C50.448 83.7256 50.4714 83.9575 50.5031 84.1863L50.5818 84.801C50.5917 84.8955 50.6082 84.9875 50.6308 85.0752C50.6645 85.1784 50.709 85.2698 50.762 85.3449C50.8338 85.4594 50.9064 85.5694 50.9799 85.6764C51.0204 85.7395 51.0647 85.7951 51.112 85.8421C51.1896 85.9055 51.2726 85.9472 51.3578 85.9657C51.6789 86.0681 52.0053 86.2158 52.2756 86.5683C52.2756 86.5683 52.2756 86.157 52.2695 86.1163C52.2662 85.9971 52.2425 85.8823 52.2012 85.7864C52.0998 85.5981 51.9248 85.5423 51.7953 85.4444Z" fill="#DCA2A2"/>
<path opacity="0.1" d="M51.7953 85.4444C51.509 85.2268 51.2797 84.8345 51.1514 84.343C51.1251 84.2376 51.1024 84.1276 51.077 84.0206C50.9918 83.667 50.86 83.3523 50.692 83.1016C50.6741 83.0675 50.652 83.0405 50.6274 83.0226C50.6028 83.0046 50.5762 82.9961 50.5494 82.9976C50.5236 83.0109 50.5002 83.0357 50.4818 83.0696C50.4633 83.1035 50.4505 83.1452 50.4444 83.1904C50.4295 83.2887 50.4256 83.391 50.4331 83.4918C50.448 83.7256 50.4714 83.9575 50.5031 84.1863L50.5818 84.801C50.5917 84.8955 50.6082 84.9875 50.6308 85.0752C50.6645 85.1784 50.709 85.2698 50.762 85.3449C50.8338 85.4594 50.9064 85.5694 50.9799 85.6764C51.0204 85.7395 51.0647 85.7951 51.112 85.8421C51.1896 85.9055 51.2726 85.9472 51.3578 85.9657C51.6789 86.0681 52.0053 86.2158 52.2756 86.5683C52.2756 86.5683 52.2756 86.157 52.2695 86.1163C52.2662 85.9971 52.2425 85.8823 52.2012 85.7864C52.0998 85.5981 51.9248 85.5423 51.7953 85.4444Z" fill="black"/>
<path d="M55.0848 80.7437C55.3018 80.7437 55.4777 80.4388 55.4777 80.0627C55.4777 79.6866 55.3018 79.3817 55.0848 79.3817C54.8679 79.3817 54.692 79.6866 54.692 80.0627C54.692 80.4388 54.8679 80.7437 55.0848 80.7437Z" fill="#2F2E41"/>
<path d="M54.8417 79.6514C54.7362 79.61 54.6255 79.6373 54.5311 79.7282C54.4857 79.7974 54.4496 79.8827 54.4252 79.9783C54.3368 80.2385 54.2681 80.5169 54.2205 80.807C54.1855 81.0555 54.1794 81.3147 54.133 81.5603C54.0525 82.0123 53.846 82.3965 53.8224 82.868C53.8119 83.079 53.832 83.3276 53.7428 83.4707C53.7206 83.5027 53.6969 83.5314 53.6719 83.5566C53.6098 83.6284 53.557 83.7218 53.5171 83.8308C53.4903 83.9286 53.4533 84.017 53.4077 84.0914C53.3272 84.1939 53.1951 84.1833 53.1557 84.3415C53.1164 84.4997 53.2179 84.6835 53.1942 84.8553C53.175 84.9954 53.084 85.0602 53.0193 85.1566C52.9455 85.2911 52.8939 85.457 52.8696 85.6372C52.7382 85.6798 52.603 85.673 52.4733 85.617C52.3435 85.5611 52.2224 85.4575 52.1181 85.3133C52.2275 85.7789 52.2301 86.2926 52.2345 86.7943C52.2471 86.9548 52.2222 87.1174 52.1654 87.2463C52.4786 87.2584 52.783 87.397 53.0884 87.522C53.219 87.5974 53.3602 87.5974 53.4908 87.522C53.5606 87.4573 53.6231 87.3716 53.6754 87.2689C53.8417 86.9781 54.0158 86.6663 54.056 86.261C54.0667 86.033 54.069 85.804 54.063 85.5755C54.0791 85.2933 54.1128 85.015 54.1636 84.7453C54.2515 84.1854 54.31 83.6131 54.3386 83.0353C54.357 82.6782 54.5355 82.3919 54.6299 82.0725C54.8049 81.4699 54.9886 80.8446 55.0026 80.1696C55.0149 79.9497 54.9712 79.68 54.8417 79.6514Z" fill="#2F2E41"/>
<path opacity="0.1" d="M54.8417 79.6514C54.7362 79.61 54.6255 79.6373 54.5311 79.7282C54.4857 79.7974 54.4496 79.8827 54.4252 79.9783C54.3368 80.2385 54.2681 80.5169 54.2205 80.807C54.1855 81.0555 54.1794 81.3147 54.133 81.5603C54.0525 82.0123 53.846 82.3965 53.8224 82.868C53.8119 83.079 53.832 83.3276 53.7428 83.4707C53.7206 83.5027 53.6969 83.5314 53.6719 83.5566C53.6098 83.6284 53.557 83.7218 53.5171 83.8308C53.4903 83.9286 53.4533 84.017 53.4077 84.0914C53.3272 84.1939 53.1951 84.1833 53.1557 84.3415C53.1164 84.4997 53.2179 84.6835 53.1942 84.8553C53.175 84.9954 53.084 85.0602 53.0193 85.1566C52.9455 85.2911 52.8939 85.457 52.8696 85.6372C52.7382 85.6798 52.603 85.673 52.4733 85.617C52.3435 85.5611 52.2224 85.4575 52.1181 85.3133C52.2275 85.7789 52.2301 86.2926 52.2345 86.7943C52.2471 86.9548 52.2222 87.1174 52.1654 87.2463C52.4786 87.2584 52.783 87.397 53.0884 87.522C53.219 87.5974 53.3602 87.5974 53.4908 87.522C53.5606 87.4573 53.6231 87.3716 53.6754 87.2689C53.8417 86.9781 54.0158 86.6663 54.056 86.261C54.0667 86.033 54.069 85.804 54.063 85.5755C54.0791 85.2933 54.1128 85.015 54.1636 84.7453C54.2515 84.1854 54.31 83.6131 54.3386 83.0353C54.357 82.6782 54.5355 82.3919 54.6299 82.0725C54.8049 81.4699 54.9886 80.8446 55.0026 80.1696C55.0149 79.9497 54.9712 79.68 54.8417 79.6514Z" fill="black"/>
<path d="M54.4742 90.4931C54.1374 90.2174 53.8916 89.7036 53.6195 89.2637C53.0998 88.423 52.4646 87.8294 51.9187 87.0414C51.5573 86.5201 51.2336 85.9129 50.8355 85.476C50.4854 85.0914 50.0884 84.8516 49.6754 84.7754C49.6283 84.7613 49.5798 84.7654 49.5337 84.7875C49.4815 84.8277 49.4361 84.8899 49.4016 84.9683C49.2252 85.3106 49.0685 85.6814 48.9335 86.0757C48.2415 88.0976 47.259 89.7986 46.4444 91.6804C46.4183 91.7247 46.4028 91.7843 46.4011 91.8474C46.3993 91.9105 46.4113 91.9724 46.4348 92.0209L46.6002 92.5798C46.6929 92.8917 46.8417 93.2563 47.0376 93.1945C47.1275 93.1499 47.2081 93.0615 47.2695 92.9399L48.0131 91.715L48.7927 90.4314C49.2494 89.678 49.7139 88.9097 50.0123 87.9484C50.245 88.643 50.6579 89.098 50.9414 89.7353C51.049 89.9764 51.1365 90.243 51.2328 90.4992C51.3876 90.9105 51.5626 91.2962 51.7376 91.6804L52.6326 93.6465C52.7455 93.9266 52.8855 94.1712 53.0464 94.3697C53.2581 94.6002 53.5162 94.662 53.7656 94.6997C54.1015 94.7524 54.4388 94.7735 54.7761 94.7629C55.0333 94.7554 55.301 94.7268 55.5285 94.5294C55.756 94.332 55.9493 93.9268 55.9371 93.4853C55.9231 93.254 55.8792 93.031 55.8084 92.8329C55.4926 91.8235 55.0744 90.9798 54.4742 90.4931Z" fill="#2F2E41"/>
<path d="M55.3263 81.0571C55.493 81.0571 55.6282 80.823 55.6282 80.5343C55.6282 80.2455 55.493 80.0114 55.3263 80.0114C55.1596 80.0114 55.0245 80.2455 55.0245 80.5343C55.0245 80.823 55.1596 81.0571 55.3263 81.0571Z" fill="#E8E8F0"/>
<path d="M55.2598 80.141C55.328 80.3748 55.34 80.6455 55.2931 80.8943C55.2464 81.1391 55.1811 81.3722 55.0989 81.5874C55.0281 81.8096 54.9433 82.0178 54.846 82.2081C55.3123 82.2473 55.7647 81.9324 56.1759 81.5497C56.5074 81.2484 56.8381 80.8642 57.0149 80.2902C56.9623 80.3118 56.9076 80.3142 56.8545 80.2973C56.8013 80.2805 56.7507 80.2447 56.706 80.1922C56.6171 80.0855 56.5372 79.9576 56.4689 79.8126L56.2353 79.3606C56.1802 79.2614 56.1317 79.1517 56.091 79.0336C56.0399 78.8732 56.0182 78.6899 56.0289 78.5078C55.9359 78.6755 55.832 78.8241 55.7192 78.9508C55.5521 79.1391 55.3692 79.2747 55.2004 79.46C55.1409 79.5263 55.0088 79.6333 55.0429 79.7613C55.077 79.8894 55.2126 79.9964 55.2598 80.141Z" fill="#DCA2A2"/>
<path opacity="0.1" d="M55.2598 80.141C55.328 80.3748 55.34 80.6455 55.2931 80.8943C55.2464 81.1391 55.1811 81.3722 55.0989 81.5874C55.0281 81.8096 54.9433 82.0178 54.846 82.2081C55.3123 82.2473 55.7647 81.9324 56.1759 81.5497C56.5074 81.2484 56.8381 80.8642 57.0149 80.2902C56.9623 80.3118 56.9076 80.3142 56.8545 80.2973C56.8013 80.2805 56.7507 80.2447 56.706 80.1922C56.6171 80.0855 56.5372 79.9576 56.4689 79.8126L56.2353 79.3606C56.1802 79.2614 56.1317 79.1517 56.091 79.0336C56.0399 78.8732 56.0182 78.6899 56.0289 78.5078C55.9359 78.6755 55.832 78.8241 55.7192 78.9508C55.5521 79.1391 55.3692 79.2747 55.2004 79.46C55.1409 79.5263 55.0088 79.6333 55.0429 79.7613C55.077 79.8894 55.2126 79.9964 55.2598 80.141Z" fill="black"/>
<path d="M55.266 80.2194C55.2188 80.3341 55.1935 80.4712 55.1935 80.6118C55.1935 80.7524 55.2188 80.8895 55.266 81.0043C55.2791 81.0329 55.329 81.2122 55.3535 81.2137C55.3741 81.2107 55.3932 81.194 55.4068 81.167C55.5125 80.9768 55.6113 80.7756 55.7025 80.5644C55.7947 80.3504 55.9281 80.1999 56.0787 80.1395C56.2616 80.0898 56.4374 80.257 56.5976 80.4167C56.6664 80.4756 56.7263 80.5612 56.7725 80.6668C56.8063 80.7716 56.8263 80.8878 56.8312 81.0073C56.8771 81.7256 56.8946 82.4485 56.8836 83.1709C56.8921 83.6917 56.8722 84.2128 56.8242 84.7272C56.7944 84.9924 56.7498 85.2515 56.7288 85.5197C56.7135 85.7558 56.7073 85.9933 56.7104 86.2308V87.2252C56.7066 87.4074 56.7142 87.5898 56.7332 87.7691C56.7693 87.9831 56.8116 88.1938 56.86 88.4004C56.9026 88.6463 56.9319 88.8985 56.9475 89.1537L57.0263 90.1827C57.0516 90.5082 57.07 90.8622 56.9554 91.1229C56.9046 91.2419 56.8364 91.3353 56.7804 91.4528C56.5836 91.8837 56.6492 92.509 56.5617 93.0438C56.497 93.4363 56.3645 93.7857 56.182 94.0458C56.0429 94.2491 55.8626 94.4104 55.6824 94.3471C55.4401 94.2687 55.294 93.8333 55.2275 93.422C55.161 93.0107 55.14 92.5617 54.9939 92.2167C54.8766 91.9319 54.6955 91.7542 54.5319 91.5508C54.3683 91.3474 54.2074 91.0867 54.1715 90.7432C54.1557 90.5925 54.1654 90.4419 54.1566 90.2912C54.1436 90.0992 54.1008 89.9168 54.0328 89.763C53.9648 89.6093 53.874 89.4899 53.7699 89.4174C53.6457 89.3345 53.4917 89.3044 53.42 89.116C53.5981 88.9234 53.7279 88.623 53.7839 88.2738C53.8382 87.9298 53.8676 87.5756 53.8714 87.2192L53.9134 86.0229C53.9318 85.4881 53.9405 84.9577 54.077 84.4771C54.1382 84.2632 54.2144 84.0613 54.2773 83.8488C54.3617 83.5507 54.4337 83.2426 54.4926 82.9268C54.5914 82.4371 54.6912 81.946 54.7795 81.4503C54.8149 81.2102 54.8678 80.9789 54.937 80.7617C55.0184 80.5357 55.126 80.2646 55.266 80.2194Z" fill="#E8E8F0"/>
<path d="M53.7235 87.9921L53.9073 88.0027L53.9466 87.5251C53.9519 87.4295 53.9648 87.3357 53.9851 87.2463C54.0156 87.1521 54.0511 87.0628 54.091 86.9797C54.2721 86.5397 54.259 85.9551 54.3036 85.4203C54.3631 84.7076 54.5363 84.0387 54.7078 83.3818L55.0648 82.0123C55.0966 81.8997 55.1221 81.7821 55.1409 81.6612C55.1565 81.5278 55.1638 81.392 55.1628 81.2559C55.1628 81.045 55.203 80.2751 55.2056 80.0627C55.2056 79.9843 55.1059 80.028 55.0849 79.9587C55.0403 79.808 54.979 80.2179 54.895 80.3083C54.8159 80.4125 54.7582 80.5577 54.7306 80.7226C54.6536 81.0676 54.6063 81.4307 54.5346 81.7772C54.4716 82.1321 54.3569 82.4532 54.2012 82.7098C54.1286 82.8213 54.0438 82.9087 53.9746 83.0262C53.7524 83.4044 53.7314 84.001 53.7235 84.5329C53.7183 84.8628 53.6824 87.9921 53.7235 87.9921Z" fill="#2F2E41"/>
<path d="M56.37 79.6483C56.1951 79.7689 56.0936 80.1003 56.0437 80.4228C55.9939 80.7452 55.9729 81.0857 55.8766 81.3719C55.6526 82.0439 55.0814 82.2398 54.923 82.966C54.8827 83.2112 54.8612 83.4644 54.8591 83.7193C54.8311 84.2391 54.7314 84.7423 54.7017 85.2621C54.6862 85.6664 54.6918 86.0723 54.7183 86.4749L54.9186 90.5775C54.9575 91.1817 54.9371 91.7929 54.8583 92.3855C55.0637 92.4364 55.2733 92.3769 55.4584 92.2152C55.6465 92.0645 55.818 91.8657 55.9982 91.6939C56.3088 91.3926 56.6518 91.1892 56.923 90.7899C56.9722 90.7239 57.0145 90.6439 57.0481 90.5534C57.0916 90.3809 57.1211 90.1989 57.1356 90.0125C57.1586 89.8673 57.1878 89.7253 57.2231 89.5876C57.3235 89.1741 57.4111 88.7516 57.4855 88.3221C57.5365 88.0371 57.5765 87.7467 57.6054 87.4527C57.6272 87.2192 57.6386 86.9827 57.6509 86.7476C57.6649 86.3779 57.7075 86.0131 57.7777 85.6628C57.9513 84.8272 58.0495 83.9507 58.0691 83.0639C58.0751 82.9358 58.0701 82.8068 58.0542 82.6812C58.024 82.5289 57.9834 82.3833 57.9335 82.2473C57.8503 81.9776 57.8005 81.6808 57.7217 81.4081C57.5468 80.7904 57.2327 80.3218 56.9046 79.9286C56.7366 79.7372 56.552 79.5293 56.37 79.6483Z" fill="#2F2E41"/>
<path d="M52.1933 86.3423C52.0512 86.2144 51.9226 86.0463 51.8128 85.8451C51.7629 85.7442 51.7253 85.6312 51.671 85.5318C51.5425 85.2959 51.3758 85.1321 51.1925 85.0617C51.0104 84.9926 50.8242 84.9617 50.6378 84.9698C50.5133 84.955 50.3883 84.9811 50.2695 85.0466C50.2098 85.0802 50.156 85.1393 50.1132 85.2183C50.0704 85.2974 50.0399 85.3938 50.0245 85.4986C49.9974 85.7547 50.0945 86.0033 50.2108 86.1661C50.3191 86.3183 50.4464 86.4251 50.5827 86.4779C50.6939 86.5111 50.806 86.5337 50.9186 86.5457C51.58 86.6648 52.1706 87.284 52.7498 87.849C53.2589 88.3441 53.778 88.8077 54.307 89.2396C54.328 88.967 54.3368 88.6919 54.3333 88.417C54.3333 88.2121 54.3246 87.8987 54.2117 87.7782C54.0805 87.6365 53.8617 87.6049 53.7165 87.5205C53.3755 87.3289 53.0426 87.0974 52.72 86.8275C52.5372 86.6753 52.3622 86.5141 52.1933 86.3423Z" fill="#DCA2A2"/>
<path d="M55.0849 79.9075C55.7357 79.9075 56.2633 78.9935 56.2633 77.866C56.2633 76.7385 55.7357 75.8245 55.0849 75.8245C54.434 75.8245 53.9064 76.7385 53.9064 77.866C53.9064 78.9935 54.434 79.9075 55.0849 79.9075Z" fill="#DCA2A2"/>
<path d="M56.7069 81.9625C56.6131 82.1895 56.5364 82.4361 56.4786 82.6963C56.3325 83.213 56.1041 83.656 55.9904 84.2029C55.8697 84.7709 55.874 85.4474 55.6404 85.8949C55.5935 85.9627 55.5581 86.0512 55.5381 86.151C55.5366 86.2132 55.5326 86.2751 55.5258 86.3363C55.4926 86.499 55.3377 86.5065 55.3089 86.6723C55.301 86.7205 55.3089 86.7732 55.2949 86.8229C55.2713 86.9299 55.1899 86.945 55.1348 87.0098C55.0202 87.1439 55.0473 87.4542 54.9598 87.6471C54.9242 87.7187 54.8783 87.7728 54.8267 87.804C54.7751 87.8353 54.7196 87.8424 54.6658 87.8249C54.5586 87.786 54.4554 87.7194 54.3596 87.6275C54.326 87.5949 54.2887 87.5749 54.2503 87.5687C54.2046 87.5704 54.1603 87.5962 54.1234 87.6426C53.9056 87.8806 53.8032 88.3537 53.805 88.7997C53.8203 89.2456 53.8816 89.6834 53.9861 90.0923C53.9984 90.163 54.0189 90.2286 54.0464 90.2852C54.1182 90.4163 54.2441 90.3952 54.3404 90.3214C54.4305 90.2294 54.5265 90.1556 54.6265 90.1014C54.8084 90.0441 54.9869 90.2611 55.1715 90.243C55.3066 90.2077 55.4337 90.1109 55.5398 89.9628C55.7272 89.7668 55.895 89.5201 56.0368 89.2321C56.1173 89.0498 56.1767 88.8418 56.2476 88.6475C56.3381 88.4087 56.4375 88.1802 56.5451 87.9635L57.2249 86.5307C57.2931 86.395 57.3542 86.2493 57.4077 86.0952C57.469 85.8869 57.5168 85.6677 57.5503 85.4414C57.6231 85.0638 57.6704 84.673 57.6912 84.2767C57.6946 83.9487 57.6779 83.6209 57.6413 83.2989C57.6185 82.9787 57.5693 82.6657 57.4952 82.3693C57.3438 81.842 56.9843 81.4051 56.7069 81.9625Z" fill="#2F2E41"/>
<path d="M59.0744 79.3033C59.0753 78.9414 59.0263 78.5842 58.9314 78.2612C58.8364 77.9383 58.6983 77.6587 58.5284 77.4457C58.5233 76.8031 58.3858 76.1845 58.1405 75.7003C57.8952 75.216 57.558 74.8975 57.189 74.8015C57.1176 74.1928 56.9238 73.647 56.6417 73.2603C56.3596 72.8736 56.0073 72.6707 55.6469 72.6875C55.2864 72.7042 54.941 72.9395 54.6714 73.3519C54.4018 73.7642 54.2254 74.3272 54.1732 74.9416C53.6833 74.7518 53.2353 74.9989 53.154 75.5187C53.0665 76.0626 53.4164 76.6984 53.9344 76.9394C54.0967 77.0184 54.2658 77.0475 54.4339 77.0253C54.5544 77.3299 54.7105 77.5877 54.8922 77.7823C55.0739 77.9769 55.2772 78.1039 55.4891 78.1553C55.5513 78.6467 55.6919 79.0985 55.8952 79.4597C56.0985 79.8209 56.3563 80.0772 56.6395 80.1998C56.7179 80.5259 56.8396 80.8159 56.9947 81.0465C56.9947 81.1098 56.9886 81.1746 56.9886 81.2409C56.983 81.4725 57.0046 81.7037 57.0522 81.9205C57.0998 82.1373 57.1723 82.3354 57.2655 82.5027C57.3587 82.67 57.4705 82.8031 57.5943 82.8941C57.7182 82.985 57.8514 83.0319 57.986 83.0319C58.1206 83.0319 58.2538 82.985 58.3776 82.8941C58.5015 82.8031 58.6133 82.67 58.7065 82.5027C58.7997 82.3354 58.8722 82.1373 58.9198 81.9205C58.9674 81.7037 58.989 81.4725 58.9834 81.2409C58.9834 80.9809 58.9509 80.7239 58.888 80.4876C59.011 80.129 59.0754 79.7198 59.0744 79.3033Z" fill="#828282"/>
<path opacity="0.1" d="M53.4864 75.6226C53.5678 75.1028 54.0114 74.8557 54.5057 75.0456C54.5632 74.4216 54.7469 73.8526 55.0243 73.4391C55.3017 73.0256 55.655 72.7941 56.0218 72.7856C56.056 72.7856 56.0901 72.7856 56.1233 72.7856C55.9816 72.7111 55.8341 72.6735 55.6859 72.6741C55.319 72.6827 54.9657 72.9141 54.6883 73.3276C54.4109 73.7411 54.2272 74.3101 54.1697 74.9341C53.6798 74.7442 53.2318 74.9913 53.1505 75.5111C53.063 76.055 53.4129 76.6908 53.9309 76.9319C54.0272 76.9779 54.126 77.0072 54.2257 77.0193C53.734 76.7722 53.4033 76.1545 53.4864 75.6226Z" fill="black"/>
<path opacity="0.1" d="M57.3211 81.3463C57.3211 81.28 57.3211 81.2153 57.3272 81.1505C57.172 80.9205 57.0503 80.631 56.972 80.3053C56.6889 80.1815 56.4314 79.9246 56.2282 79.5633C56.0251 79.2019 55.8843 78.7504 55.8215 78.2592C55.6096 78.2082 55.4062 78.0812 55.2245 77.8866C55.0428 77.692 54.8867 77.434 54.7664 77.1293C54.6684 77.1426 54.5699 77.1381 54.4724 77.1157C54.5934 77.3964 54.7456 77.6329 54.9201 77.8114C55.0946 77.9899 55.288 78.1068 55.4891 78.1553C55.5513 78.6467 55.692 79.0985 55.8952 79.4597C56.0985 79.8209 56.3563 80.0772 56.6396 80.1998C56.7179 80.5259 56.8396 80.8159 56.9948 81.0465C56.9948 81.1098 56.9886 81.1746 56.9886 81.2409C56.9842 81.7028 57.086 82.1489 57.2719 82.482C57.4577 82.8151 57.7126 83.008 57.9808 83.0187C57.785 82.8887 57.617 82.6589 57.4991 82.3601C57.3813 82.0612 57.3191 81.7076 57.3211 81.3463Z" fill="black"/>
<path d="M55.624 78.614C55.704 78.5093 55.7033 78.2756 55.6223 78.0921C55.5414 77.9085 55.4109 77.8446 55.3308 77.9493C55.2508 78.054 55.2516 78.2876 55.3325 78.4712C55.4135 78.6548 55.544 78.7187 55.624 78.614Z" fill="#DCA2A2"/>
<path d="M27.4541 88.7725L28.6194 87.5929C28.4619 87.1293 28.2606 86.7142 28.0236 86.3649L25.8259 87.5416L27.5477 85.7984C27.1213 85.3964 26.6415 85.1924 26.1555 85.2066C25.6695 85.2208 25.1939 85.4527 24.7757 85.8794C24.3576 86.3062 24.0111 86.9131 23.7704 87.6404C23.5298 88.3678 23.4033 89.1905 23.4033 90.0276C23.4033 92.6898 24.657 92.7817 26.203 92.7817C27.7489 92.7817 29.0026 92.6898 29.0026 90.0276C29.0036 89.3528 28.9216 88.6853 28.762 88.0689L27.4541 88.7725Z" fill="#35A600"/>
<path opacity="0.1" d="M27.7506 91.3609C27.6265 91.1467 27.4879 90.9591 27.3377 90.802C27.1268 90.5594 26.9072 90.3123 26.6579 90.231C26.4392 90.1586 26.2135 90.2204 25.9904 90.1978C25.603 90.1571 25.2383 89.8692 24.9676 89.3903C24.8084 89.107 24.6833 88.759 24.4917 88.542C24.2775 88.3229 24.0249 88.2432 23.7795 88.3175C23.7084 88.3346 23.638 88.3592 23.5687 88.3914C23.459 88.9162 23.4031 89.4698 23.4033 90.0276C23.4033 92.6898 24.657 92.7817 26.203 92.7817C26.9536 92.7817 27.6343 92.7606 28.1373 92.4337L28.0498 92.164C27.9704 91.8754 27.8698 91.6056 27.7506 91.3609Z" fill="black"/>
</g>
<defs>
<linearGradient id="paint0_linear" x1="49.6501" y1="96.3705" x2="49.6501" y2="72.3185" gradientUnits="userSpaceOnUse">
<stop stop-color="#808080" stop-opacity="0.25"/>
<stop offset="0.54" stop-color="#808080" stop-opacity="0.12"/>
<stop offset="1" stop-color="#808080" stop-opacity="0.1"/>
</linearGradient>
<clipPath id="clip0">
<rect width="100" height="100" fill="white"/>
</clipPath>
</defs>
</svg>
